<svg width="28" height="26" viewBox="0 0 28 26" fill="none" xmlns="http://www.w3.org/2000/svg">
<path d="M26.4306 20.1263C27.1064 18.747 27.4432 17.2253 27.4128 15.6885C27.3824 14.1517 26.9857 12.6446 26.2559 11.2934C25.5261 9.94221 24.4845 8.78623 23.2183 7.9223C21.952 7.05836 20.498 6.51162 18.978 6.32786C18.4739 5.14804 17.7398 4.08145 16.8187 3.19092C15.8977 2.3004 14.8085 1.60395 13.6152 1.14262C12.422 0.681294 11.1488 0.46441 9.87076 0.504751C8.59272 0.545092 7.33565 0.841841 6.1736 1.37751C5.01156 1.91319 3.96806 2.67695 3.10457 3.6238C2.24108 4.57066 1.57507 5.68145 1.14579 6.89073C0.716501 8.10002 0.532622 9.38333 0.604982 10.6651C0.677342 11.9468 1.00448 13.201 1.56711 14.3539L0.649614 17.5792C0.567741 17.8678 0.564155 18.173 0.639225 18.4634C0.714295 18.7538 0.865295 19.0188 1.0766 19.231C1.2879 19.4431 1.55183 19.5947 1.84108 19.6701C2.13033 19.7455 2.43438 19.7419 2.72177 19.6597L5.93422 18.7385C6.90359 19.2163 7.94632 19.5266 9.0185 19.6561C9.52959 20.8583 10.2793 21.9433 11.222 22.8449C12.1646 23.7466 13.2803 24.4459 14.5011 24.9002C15.7218 25.3545 17.022 25.5543 18.3222 25.4874C19.6224 25.4204 20.8954 25.0882 22.0635 24.5109L25.276 25.4321C25.5634 25.5143 25.8674 25.5179 26.1567 25.4425C26.4459 25.3671 26.7098 25.2155 26.9211 25.0034C27.1324 24.7912 27.2834 24.5262 27.3585 24.2358C27.4336 23.9454 27.43 23.6401 27.3481 23.3516L26.4306 20.1263ZM6.03723 16.747C5.94817 16.747 5.85952 16.7592 5.77371 16.7831L2.61038 17.691L3.5147 14.515C3.58248 14.2731 3.55324 14.0141 3.43325 13.7935C2.55218 12.1694 2.2835 10.281 2.67645 8.47425C3.06939 6.66748 4.09763 5.06338 5.57277 3.95589C7.0479 2.84839 8.87113 2.31168 10.7084 2.44409C12.5456 2.5765 14.2738 3.36917 15.5762 4.67685C16.8787 5.98452 17.6682 7.71963 17.8001 9.56422C17.9319 11.4088 17.3974 13.2393 16.2943 14.7204C15.1912 16.2014 13.5935 17.2338 11.794 17.6283C9.99442 18.0228 8.11354 17.7531 6.49598 16.8685C6.35573 16.7897 6.19791 16.7479 6.03723 16.747ZM24.483 20.2874L25.3874 23.4634L22.224 22.5555C21.983 22.4874 21.7251 22.5168 21.5054 22.6373C19.739 23.6021 17.666 23.8322 15.7323 23.278C13.7987 22.7239 12.159 21.4297 11.1661 19.6741C12.4782 19.5369 13.7479 19.1289 14.8956 18.4758C16.0432 17.8226 17.0441 16.9384 17.8353 15.8786C18.6265 14.8187 19.191 13.6061 19.4934 12.3169C19.7957 11.0277 19.8295 9.68962 19.5925 8.38668C20.7407 8.65837 21.811 9.19245 22.72 9.94734C23.629 10.7022 24.3522 11.6576 24.8333 12.739C25.3144 13.8204 25.5405 14.9987 25.4939 16.1822C25.4472 17.3657 25.1292 18.5224 24.5645 19.5623C24.4435 19.7839 24.4143 20.0443 24.483 20.2874Z" fill="#B3B3B3"/>
</svg>
