<svg width="23" height="22" viewBox="0 0 23 22" fill="none" xmlns="http://www.w3.org/2000/svg">
<path d="M21 0.5H1.75003C1.2859 0.5 0.840782 0.684374 0.512594 1.01256C0.184405 1.34075 3.04711e-05 1.78587 3.04711e-05 2.25V19.75C-0.00194687 20.0836 0.0923498 20.4106 0.271609 20.6919C0.450868 20.9732 0.707478 21.1968 1.01066 21.3359C1.24233 21.4435 1.4946 21.4995 1.75003 21.5C2.16085 21.499 2.55804 21.3525 2.87112 21.0866C2.87634 21.0832 2.88112 21.0791 2.88534 21.0745L6.39847 18H21C21.4642 18 21.9093 17.8156 22.2375 17.4874C22.5657 17.1592 22.75 16.7141 22.75 16.25V2.25C22.75 1.78587 22.5657 1.34075 22.2375 1.01256C21.9093 0.684374 21.4642 0.5 21 0.5ZM21 16.25H6.39847C5.98637 16.2498 5.58742 16.3951 5.2719 16.6602L5.25878 16.6722L1.75003 19.75V2.25H21V16.25ZM10.0625 9.25C10.0625 8.99041 10.1395 8.73665 10.2837 8.52081C10.4279 8.30498 10.6329 8.13675 10.8728 8.03741C11.1126 7.93807 11.3765 7.91208 11.6311 7.96272C11.8857 8.01336 12.1196 8.13837 12.3031 8.32192C12.4867 8.50548 12.6117 8.73934 12.6623 8.99394C12.713 9.24854 12.687 9.51244 12.5876 9.75227C12.4883 9.9921 12.3201 10.1971 12.1042 10.3413C11.8884 10.4855 11.6346 10.5625 11.375 10.5625C11.0269 10.5625 10.6931 10.4242 10.447 10.1781C10.2008 9.93194 10.0625 9.5981 10.0625 9.25ZM5.25003 9.25C5.25003 8.99041 5.32701 8.73665 5.47123 8.52081C5.61545 8.30498 5.82043 8.13675 6.06026 8.03741C6.30009 7.93807 6.56399 7.91208 6.81859 7.96272C7.07319 8.01336 7.30705 8.13837 7.49061 8.32192C7.67417 8.50548 7.79917 8.73934 7.84981 8.99394C7.90045 9.24854 7.87446 9.51244 7.77512 9.75227C7.67578 9.9921 7.50756 10.1971 7.29172 10.3413C7.07588 10.4855 6.82212 10.5625 6.56253 10.5625C6.21443 10.5625 5.88059 10.4242 5.63445 10.1781C5.38831 9.93194 5.25003 9.5981 5.25003 9.25ZM14.875 9.25C14.875 8.99041 14.952 8.73665 15.0962 8.52081C15.2404 8.30498 15.4454 8.13675 15.6853 8.03741C15.9251 7.93807 16.189 7.91208 16.4436 7.96272C16.6982 8.01336 16.9321 8.13837 17.1156 8.32192C17.2992 8.50548 17.4242 8.73934 17.4748 8.99394C17.5255 9.24854 17.4995 9.51244 17.4001 9.75227C17.3008 9.9921 17.1326 10.1971 16.9167 10.3413C16.7009 10.4855 16.4471 10.5625 16.1875 10.5625C15.8394 10.5625 15.5056 10.4242 15.2595 10.1781C15.0133 9.93194 14.875 9.5981 14.875 9.25Z" fill="white"/>
</svg>
