<svg width="17" height="17" viewBox="0 0 17 17" fill="none" xmlns="http://www.w3.org/2000/svg">
<path d="M11.56 7.48C11.56 7.66035 11.4884 7.83331 11.3608 7.96083C11.2333 8.08836 11.0603 8.16 10.88 8.16H5.44C5.25965 8.16 5.08669 8.08836 4.95917 7.96083C4.83164 7.83331 4.76 7.66035 4.76 7.48C4.76 7.29965 4.83164 7.12669 4.95917 6.99917C5.08669 6.87164 5.25965 6.8 5.44 6.8H10.88C11.0603 6.8 11.2333 6.87164 11.3608 6.99917C11.4884 7.12669 11.56 7.29965 11.56 7.48ZM10.88 9.52H5.44C5.25965 9.52 5.08669 9.59164 4.95917 9.71917C4.83164 9.84669 4.76 10.0197 4.76 10.2C4.76 10.3803 4.83164 10.5533 4.95917 10.6808C5.08669 10.8084 5.25965 10.88 5.44 10.88H10.88C11.0603 10.88 11.2333 10.8084 11.3608 10.6808C11.4884 10.5533 11.56 10.3803 11.56 10.2C11.56 10.0197 11.4884 9.84669 11.3608 9.71917C11.2333 9.59164 11.0603 9.52 10.88 9.52ZM17 8.5C16.9975 10.7536 16.1012 12.9142 14.5077 14.5077C12.9142 16.1012 10.7536 16.9975 8.5 17H1.33195C0.978833 16.9995 0.640308 16.8591 0.390616 16.6094C0.140924 16.3597 0.000449831 16.0212 0 15.6681V8.5C3.35923e-08 6.24566 0.895533 4.08365 2.48959 2.48959C4.08365 0.895533 6.24566 0 8.5 0C10.7543 0 12.9163 0.895533 14.5104 2.48959C16.1045 4.08365 17 6.24566 17 8.5ZM15.64 8.5C15.64 6.60635 14.8878 4.79027 13.5487 3.45126C12.2097 2.11225 10.3936 1.36 8.5 1.36C6.60635 1.36 4.79027 2.11225 3.45126 3.45126C2.11225 4.79027 1.36 6.60635 1.36 8.5V15.64H8.5C10.393 15.638 12.2079 14.8851 13.5465 13.5465C14.8851 12.2079 15.638 10.393 15.64 8.5Z" fill="#595959"/>
</svg>
