<svg width="26" height="26" viewBox="0 0 26 26" fill="none" xmlns="http://www.w3.org/2000/svg">
<path d="M15.534 2.241C15.568 2.11409 15.6266 1.99511 15.7065 1.89086C15.7865 1.78661 15.8862 1.69914 15.9999 1.63344C16.1137 1.56773 16.2393 1.52509 16.3695 1.50794C16.4998 1.49079 16.6321 1.49948 16.759 1.5335C18.6128 2.01718 20.3042 2.9863 21.659 4.34104C23.0137 5.69578 23.9828 7.38717 24.4665 9.241C24.5005 9.36789 24.5092 9.50024 24.4921 9.63049C24.4749 9.76073 24.4323 9.88633 24.3666 10.0001C24.3009 10.1138 24.2134 10.2135 24.1091 10.2935C24.0049 10.3734 23.8859 10.4321 23.759 10.466C23.6745 10.4882 23.5876 10.4995 23.5003 10.4997C23.2799 10.4997 23.0657 10.4269 22.891 10.2927C22.7162 10.1584 22.5907 9.97018 22.534 9.75725C22.1395 8.2439 21.3486 6.86313 20.2427 5.75728C19.1369 4.65142 17.7561 3.86048 16.2428 3.466C16.1157 3.43219 15.9966 3.37366 15.8922 3.29378C15.7878 3.21389 15.7002 3.11421 15.6344 3.00044C15.5686 2.88666 15.5258 2.76102 15.5086 2.63071C15.4914 2.5004 15.5 2.36797 15.534 2.241ZM15.2428 7.466C16.9665 7.926 18.074 9.0335 18.534 10.7572C18.5907 10.9702 18.7162 11.1584 18.891 11.2927C19.0657 11.4269 19.2799 11.4997 19.5003 11.4997C19.5876 11.4995 19.6745 11.4882 19.759 11.466C19.8859 11.4321 20.0049 11.3734 20.1091 11.2935C20.2134 11.2135 20.3009 11.1138 20.3666 11.0001C20.4323 10.8863 20.4749 10.7607 20.4921 10.6305C20.5092 10.5002 20.5005 10.3679 20.4665 10.241C19.8265 7.846 18.154 6.1735 15.759 5.5335C15.6321 5.4996 15.4998 5.49103 15.3696 5.50827C15.2394 5.52551 15.1139 5.56823 15.0002 5.63398C14.8865 5.69974 14.7868 5.78724 14.707 5.8915C14.6271 5.99576 14.5685 6.11473 14.5346 6.24162C14.5007 6.36851 14.4922 6.50084 14.5094 6.63104C14.5266 6.76124 14.5694 6.88677 14.6351 7.00047C14.7009 7.11416 14.7884 7.21379 14.8926 7.29367C14.9969 7.37354 15.1159 7.4321 15.2428 7.466ZM25.4853 19.3847C25.2624 21.0785 24.4305 22.6333 23.1451 23.7586C21.8597 24.8839 20.2086 25.5028 18.5003 25.4997C8.57526 25.4997 0.500255 17.4247 0.500255 7.49975C0.497193 5.79136 1.11611 4.14028 2.24142 2.85487C3.36673 1.56946 4.92147 0.73763 6.61526 0.514747C7.04357 0.462448 7.47732 0.550074 7.85174 0.764545C8.22616 0.979016 8.52118 1.30883 8.69276 1.70475L11.3328 7.5985V7.6135C11.4641 7.91656 11.5184 8.24745 11.4907 8.57659C11.463 8.90574 11.3542 9.2229 11.174 9.49975C11.1515 9.5335 11.1278 9.56475 11.1028 9.596L8.50026 12.681C9.43651 14.5835 11.4265 16.556 13.354 17.4947L16.3965 14.906C16.4264 14.8809 16.4577 14.8575 16.4903 14.836C16.7669 14.6515 17.0851 14.5389 17.4162 14.5083C17.7473 14.4778 18.0808 14.5302 18.3865 14.661L18.4028 14.6685L24.2915 17.3072C24.6881 17.4782 25.0187 17.773 25.2339 18.1474C25.4491 18.5219 25.5373 18.956 25.4853 19.3847ZM23.5003 19.1347C23.5003 19.1347 23.4915 19.1347 23.4865 19.1347L17.6115 16.5035L14.5678 19.0922C14.5382 19.1173 14.5073 19.1406 14.4753 19.1622C14.1875 19.3543 13.8548 19.4683 13.5097 19.4933C13.1646 19.5183 12.819 19.4533 12.5065 19.3047C10.1653 18.1735 7.83151 15.8572 6.69901 13.541C6.54904 13.2308 6.48175 12.8872 6.50365 12.5433C6.52555 12.1995 6.6359 11.8671 6.82401 11.5785C6.84521 11.5446 6.86903 11.5124 6.89526 11.4822L9.50026 8.3935L6.87526 2.5185C6.87476 2.51351 6.87476 2.50848 6.87526 2.5035C5.66307 2.66162 4.5501 3.2562 3.74477 4.17589C2.93944 5.09558 2.49698 6.2773 2.50026 7.49975C2.50489 11.7418 4.19208 15.8088 7.19166 18.8083C10.1912 21.8079 14.2582 23.4951 18.5003 23.4997C19.722 23.5039 20.9034 23.063 21.8236 22.2594C22.7438 21.4559 23.3398 20.3446 23.5003 19.1335V19.1347Z" fill="#B3B3B3"/>
</svg>
