<svg width="19" height="10" viewBox="0 0 19 10" fill="none" xmlns="http://www.w3.org/2000/svg">
<path d="M15.6071 5C15.6071 5.1705 15.5357 5.33401 15.4084 5.45457C15.2811 5.57513 15.1085 5.64286 14.9286 5.64286H4.07143C3.89146 5.64286 3.71886 5.57513 3.59161 5.45457C3.46435 5.33401 3.39286 5.1705 3.39286 5C3.39286 4.8295 3.46435 4.66599 3.59161 4.54543C3.71886 4.42487 3.89146 4.35714 4.07143 4.35714H14.9286C15.1085 4.35714 15.2811 4.42487 15.4084 4.54543C15.5357 4.66599 15.6071 4.8295 15.6071 5ZM18.3214 0.5H0.678571C0.498603 0.5 0.326006 0.56773 0.198749 0.688289C0.0714921 0.808848 0 0.972361 0 1.14286C0 1.31335 0.0714921 1.47687 0.198749 1.59743C0.326006 1.71798 0.498603 1.78571 0.678571 1.78571H18.3214C18.5014 1.78571 18.674 1.71798 18.8013 1.59743C18.9285 1.47687 19 1.31335 19 1.14286C19 0.972361 18.9285 0.808848 18.8013 0.688289C18.674 0.56773 18.5014 0.5 18.3214 0.5ZM11.5357 8.21429H7.46429C7.28432 8.21429 7.11172 8.28201 6.98446 8.40257C6.85721 8.52313 6.78571 8.68665 6.78571 8.85714C6.78571 9.02764 6.85721 9.19115 6.98446 9.31171C7.11172 9.43227 7.28432 9.5 7.46429 9.5H11.5357C11.7157 9.5 11.8883 9.43227 12.0155 9.31171C12.1428 9.19115 12.2143 9.02764 12.2143 8.85714C12.2143 8.68665 12.1428 8.52313 12.0155 8.40257C11.8883 8.28201 11.7157 8.21429 11.5357 8.21429Z" fill="#B3B3B3"/>
</svg>
