<svg width="17" height="15" viewBox="0 0 17 15" fill="none" xmlns="http://www.w3.org/2000/svg">
<path d="M12.2946 0C10.7275 0 9.35531 0.693914 8.5 1.86685C7.64469 0.693914 6.27254 0 4.70536 0C3.45785 0.00144779 2.26184 0.512355 1.37972 1.42064C0.497599 2.32892 0.0014061 3.56039 0 4.84489C0 10.3149 7.87692 14.7425 8.21237 14.9254C8.30078 14.9744 8.39961 15 8.5 15C8.60039 15 8.69922 14.9744 8.78763 14.9254C9.12308 14.7425 17 10.3149 17 4.84489C16.9986 3.56039 16.5024 2.32892 15.6203 1.42064C14.7382 0.512355 13.5421 0.00144779 12.2946 0ZM8.5 13.6595C7.1142 12.828 1.21429 9.04041 1.21429 4.84489C1.21549 3.89193 1.58369 2.97835 2.23813 2.3045C2.89257 1.63065 3.77984 1.25154 4.70536 1.25029C6.18147 1.25029 7.4208 2.05986 7.93839 3.36017C7.98414 3.47483 8.06195 3.57289 8.16195 3.64191C8.26195 3.71093 8.37961 3.74778 8.5 3.74778C8.62039 3.74778 8.73805 3.71093 8.83805 3.64191C8.93805 3.57289 9.01586 3.47483 9.06161 3.36017C9.5792 2.05752 10.8185 1.25029 12.2946 1.25029C13.2202 1.25154 14.1074 1.63065 14.7619 2.3045C15.4163 2.97835 15.7845 3.89193 15.7857 4.84489C15.7857 9.03416 9.88429 12.8272 8.5 13.6595Z" fill="#595959"/>
</svg>
