<svg width="27" height="26" viewBox="0 0 27 26" fill="none" xmlns="http://www.w3.org/2000/svg">
<path d="M13.5 7C12.3133 7 11.1533 7.35189 10.1666 8.01118C9.17988 8.67047 8.41085 9.60754 7.95672 10.7039C7.5026 11.8003 7.38378 13.0067 7.61529 14.1705C7.8468 15.3344 8.41824 16.4035 9.25736 17.2426C10.0965 18.0818 11.1656 18.6532 12.3295 18.8847C13.4933 19.1162 14.6997 18.9974 15.7961 18.5433C16.8925 18.0892 17.8295 17.3201 18.4888 16.3334C19.1481 15.3467 19.5 14.1867 19.5 13C19.4983 11.4092 18.8657 9.88405 17.7408 8.75919C16.616 7.63433 15.0908 7.00165 13.5 7ZM13.5 17C12.7089 17 11.9355 16.7654 11.2777 16.3259C10.6199 15.8864 10.1072 15.2616 9.80448 14.5307C9.50173 13.7998 9.42252 12.9956 9.57686 12.2196C9.7312 11.4437 10.1122 10.731 10.6716 10.1716C11.231 9.61216 11.9437 9.2312 12.7196 9.07686C13.4956 8.92252 14.2998 9.00173 15.0307 9.30448C15.7616 9.60723 16.3864 10.1199 16.8259 10.7777C17.2654 11.4355 17.5 12.2089 17.5 13C17.5 14.0609 17.0786 15.0783 16.3284 15.8284C15.5783 16.5786 14.5609 17 13.5 17ZM19.5 0H7.5C5.64409 0.00198528 3.86477 0.740121 2.55245 2.05245C1.24012 3.36477 0.501985 5.14409 0.5 7V19C0.501985 20.8559 1.24012 22.6352 2.55245 23.9476C3.86477 25.2599 5.64409 25.998 7.5 26H19.5C21.3559 25.998 23.1352 25.2599 24.4476 23.9476C25.7599 22.6352 26.498 20.8559 26.5 19V7C26.498 5.14409 25.7599 3.36477 24.4476 2.05245C23.1352 0.740121 21.3559 0.00198528 19.5 0ZM24.5 19C24.5 20.3261 23.9732 21.5979 23.0355 22.5355C22.0979 23.4732 20.8261 24 19.5 24H7.5C6.17392 24 4.90215 23.4732 3.96447 22.5355C3.02678 21.5979 2.5 20.3261 2.5 19V7C2.5 5.67392 3.02678 4.40215 3.96447 3.46447C4.90215 2.52678 6.17392 2 7.5 2H19.5C20.8261 2 22.0979 2.52678 23.0355 3.46447C23.9732 4.40215 24.5 5.67392 24.5 7V19ZM21.5 6.5C21.5 6.79667 21.412 7.08668 21.2472 7.33335C21.0824 7.58003 20.8481 7.77229 20.574 7.88582C20.2999 7.99935 19.9983 8.02906 19.7074 7.97118C19.4164 7.9133 19.1491 7.77044 18.9393 7.56066C18.7296 7.35088 18.5867 7.08361 18.5288 6.79264C18.4709 6.50166 18.5007 6.20006 18.6142 5.92597C18.7277 5.65189 18.92 5.41762 19.1666 5.2528C19.4133 5.08797 19.7033 5 20 5C20.3978 5 20.7794 5.15804 21.0607 5.43934C21.342 5.72064 21.5 6.10218 21.5 6.5Z" fill="white"/>
</svg>
