<svg width="17" height="15" viewBox="0 0 17 15" fill="none" xmlns="http://www.w3.org/2000/svg">
<path d="M17 7.5C17 7.66576 16.9254 7.82473 16.7925 7.94194C16.6597 8.05915 16.4795 8.125 16.2917 8.125H9.20833V14.375C9.20833 14.5408 9.13371 14.6997 9.00087 14.8169C8.86803 14.9342 8.68786 15 8.5 15C8.31214 15 8.13197 14.9342 7.99913 14.8169C7.86629 14.6997 7.79167 14.5408 7.79167 14.375V8.125H0.708333C0.520472 8.125 0.340304 8.05915 0.207466 7.94194C0.0746279 7.82473 0 7.66576 0 7.5C0 7.33424 0.0746279 7.17527 0.207466 7.05806C0.340304 6.94085 0.520472 6.875 0.708333 6.875H7.79167V0.625C7.79167 0.45924 7.86629 0.300269 7.99913 0.183058C8.13197 0.0658481 8.31214 0 8.5 0C8.68786 0 8.86803 0.0658481 9.00087 0.183058C9.13371 0.300269 9.20833 0.45924 9.20833 0.625V6.875H16.2917C16.4795 6.875 16.6597 6.94085 16.7925 7.05806C16.9254 7.17527 17 7.33424 17 7.5Z" fill="#595959"/>
</svg>
