<svg width="21" height="22" viewBox="0 0 21 22" fill="none" xmlns="http://www.w3.org/2000/svg">
<path d="M19.9122 15.8408C19.3518 14.8755 18.5188 12.1444 18.5188 8.57727C18.5188 6.43505 17.6678 4.38056 16.153 2.86578C14.6383 1.351 12.5838 0.5 10.4416 0.5C8.29933 0.5 6.24484 1.351 4.73006 2.86578C3.21528 4.38056 2.36428 6.43505 2.36428 8.57727C2.36428 12.1454 1.53031 14.8755 0.969945 15.8408C0.826847 16.0862 0.750985 16.3649 0.75001 16.649C0.749034 16.9331 0.822981 17.2124 0.964391 17.4587C1.1058 17.7051 1.30967 17.9098 1.55545 18.0523C1.80123 18.1947 2.08022 18.2698 2.36428 18.27H6.4847C6.67106 19.1819 7.16665 20.0014 7.88766 20.59C8.60866 21.1785 9.51083 21.5 10.4416 21.5C11.3723 21.5 12.2744 21.1785 12.9955 20.59C13.7165 20.0014 14.2121 19.1819 14.3984 18.27H18.5188C18.8028 18.2696 19.0817 18.1944 19.3273 18.0519C19.5729 17.9094 19.7767 17.7046 19.918 17.4583C20.0593 17.212 20.1331 16.9327 20.1321 16.6487C20.1311 16.3648 20.0552 16.0861 19.9122 15.8408ZM10.4416 19.8855C9.94058 19.8853 9.45197 19.7299 9.04297 19.4406C8.63398 19.1513 8.3247 18.7423 8.15771 18.27H12.7254C12.5584 18.7423 12.2491 19.1513 11.8401 19.4406C11.4311 19.7299 10.9425 19.8853 10.4416 19.8855ZM2.36428 16.6545C3.14172 15.3178 3.97974 12.2201 3.97974 8.57727C3.97974 6.86349 4.66053 5.2199 5.87236 4.00808C7.08419 2.79625 8.72778 2.11545 10.4416 2.11545C12.1553 2.11545 13.7989 2.79625 15.0107 4.00808C16.2226 5.2199 16.9034 6.86349 16.9034 8.57727C16.9034 12.2171 17.7394 15.3147 18.5188 16.6545H2.36428Z" fill="white"/>
</svg>
