<svg width="47" height="47" viewBox="0 0 47 47" fill="none" xmlns="http://www.w3.org/2000/svg">
<path d="M33.6665 16.5523C33.8321 16.7177 33.9635 16.9141 34.0531 17.1304C34.1428 17.3466 34.1889 17.5784 34.1889 17.8125C34.1889 18.0466 34.1428 18.2784 34.0531 18.4946C33.9635 18.7109 33.8321 18.9073 33.6665 19.0727L21.1977 31.5415C21.0323 31.7071 20.8359 31.8385 20.6196 31.9281C20.4034 32.0178 20.1716 32.0639 19.9375 32.0639C19.7034 32.0639 19.4716 32.0178 19.2554 31.9281C19.0392 31.8385 18.8427 31.7071 18.6773 31.5415L13.3335 26.1977C12.9993 25.8635 12.8115 25.4102 12.8115 24.9375C12.8115 24.4648 12.9993 24.0115 13.3335 23.6773C13.6678 23.343 14.1211 23.1553 14.5938 23.1553C15.0664 23.1553 15.5198 23.343 15.854 23.6773L19.9375 27.763L31.146 16.5523C31.3115 16.3867 31.5079 16.2553 31.7241 16.1656C31.9404 16.076 32.1722 16.0298 32.4063 16.0298C32.6403 16.0298 32.8721 16.076 33.0884 16.1656C33.3046 16.2553 33.5011 16.3867 33.6665 16.5523ZM46.6563 23.1562C46.6563 27.7361 45.2982 32.2131 42.7537 36.0212C40.2093 39.8292 36.5928 42.7972 32.3615 44.5498C28.1303 46.3025 23.4743 46.761 18.9825 45.8676C14.4906 44.9741 10.3645 42.7687 7.12607 39.5302C3.88761 36.2917 1.68219 32.1657 0.788701 27.6738C-0.104788 23.1819 0.353783 18.526 2.10643 14.2947C3.85907 10.0635 6.82706 6.44697 10.6351 3.90253C14.4431 1.35809 18.9201 0 23.5 0C29.6394 0.00648335 35.5256 2.44823 39.8668 6.78947C44.208 11.1307 46.6498 17.0168 46.6563 23.1562ZM43.0938 23.1562C43.0938 19.281 41.9446 15.4927 39.7916 12.2705C37.6386 9.04837 34.5785 6.53699 30.9982 5.05399C27.4179 3.57098 23.4783 3.18296 19.6775 3.93899C15.8766 4.69502 12.3854 6.56114 9.64514 9.30138C6.9049 12.0416 5.03878 15.5329 4.28275 19.3337C3.52672 23.1345 3.91474 27.0742 5.39775 30.6545C6.88075 34.2347 9.39213 37.2949 12.6143 39.4479C15.8365 41.6008 19.6247 42.75 23.5 42.75C28.6948 42.7441 33.6751 40.6779 37.3484 37.0046C41.0216 33.3314 43.0879 28.351 43.0938 23.1562Z" fill="url(#paint0_linear_2002_5284)"/>
<defs>
<linearGradient id="paint0_linear_2002_5284" x1="23.5" y1="0" x2="23.5" y2="46.3125" gradientUnits="userSpaceOnUse">
<stop stop-color="#9D6DD1"/>
<stop offset="1" stop-color="#6D3F9E"/>
</linearGradient>
</defs>
</svg>
