<svg width="22" height="22" viewBox="0 0 22 22" fill="none" xmlns="http://www.w3.org/2000/svg">
<path d="M10.6321 0.5C8.55538 0.5 6.52531 1.11581 4.7986 2.26957C3.07188 3.42332 1.72607 5.0632 0.93135 6.98182C0.13663 8.90045 -0.0713054 11.0116 0.333839 13.0484C0.738984 15.0852 1.73901 16.9562 3.20746 18.4246C4.67591 19.8931 6.54683 20.8931 8.58363 21.2982C10.6204 21.7034 12.7316 21.4954 14.6503 20.7007C16.5689 19.906 18.2088 18.5602 19.3625 16.8335C20.5163 15.1068 21.1321 13.0767 21.1321 11C21.1291 8.21613 20.0219 5.54712 18.0535 3.57862C16.085 1.61013 13.416 0.50294 10.6321 0.5ZM5.18824 18.0168C5.77254 17.103 6.57747 16.351 7.52885 15.8301C8.48023 15.3091 9.54743 15.0361 10.6321 15.0361C11.7167 15.0361 12.7839 15.3091 13.7353 15.8301C14.6867 16.351 15.4916 17.103 16.0759 18.0168C14.5194 19.2273 12.6039 19.8845 10.6321 19.8845C8.66028 19.8845 6.74473 19.2273 5.18824 18.0168ZM7.40131 10.1923C7.40131 9.55332 7.5908 8.92868 7.9458 8.39739C8.3008 7.86609 8.80537 7.45199 9.39572 7.20746C9.98607 6.96293 10.6357 6.89895 11.2624 7.02361C11.8891 7.14827 12.4647 7.45598 12.9166 7.90781C13.3684 8.35964 13.6761 8.93531 13.8008 9.56201C13.9254 10.1887 13.8615 10.8383 13.6169 11.4287C13.3724 12.019 12.9583 12.5236 12.427 12.8786C11.8957 13.2336 11.2711 13.4231 10.6321 13.4231C9.77523 13.4231 8.95347 13.0827 8.34758 12.4768C7.7417 11.8709 7.40131 11.0492 7.40131 10.1923ZM17.2713 16.8972C16.3705 15.5918 15.1039 14.5819 13.6306 13.9945C14.422 13.3712 14.9994 12.5168 15.2827 11.5501C15.566 10.5834 15.5409 9.5525 15.2111 8.60069C14.8813 7.64888 14.263 6.82351 13.4424 6.23935C12.6217 5.65519 11.6394 5.34128 10.6321 5.34128C9.62474 5.34128 8.64244 5.65519 7.82178 6.23935C7.00112 6.82351 6.38289 7.64888 6.05306 8.60069C5.72323 9.5525 5.69821 10.5834 5.98146 11.5501C6.26472 12.5168 6.84217 13.3712 7.63353 13.9945C6.16031 14.5819 4.89366 15.5918 3.99285 16.8972C2.85458 15.6171 2.1106 14.0353 1.8505 12.3423C1.59039 10.6492 1.82526 8.91705 2.52681 7.35438C3.22836 5.7917 4.36669 4.46514 5.80471 3.53444C7.24274 2.60373 8.91915 2.10857 10.6321 2.10857C12.345 2.10857 14.0214 2.60373 15.4595 3.53444C16.8975 4.46514 18.0358 5.7917 18.7374 7.35438C19.4389 8.91705 19.6738 10.6492 19.4137 12.3423C19.1536 14.0353 18.4096 15.6171 17.2713 16.8972Z" fill="white"/>
</svg>
