<svg width="65" height="60" viewBox="0 0 65 60" fill="none" xmlns="http://www.w3.org/2000/svg">
<path d="M53.3265 49.0143H54.7048V37.1592H53.3265V49.0143Z" fill="#B3B3B3"/>
<path d="M12.986 49.0143H14.3642V37.1592H12.986V49.0143Z" fill="#B3B3B3"/>
<path d="M14.3642 49.0141H12.986V38.4316H14.3642V49.0141Z" fill="#595959"/>
<path d="M12.461 52.6313L11.0828 52.542L12.0453 37.1147L13.4455 37.204L12.461 52.6313Z" fill="#B3B3B3"/>
<path d="M54.7048 49.0147H53.3265V38.2759H54.7048V49.0147Z" fill="#595959"/>
<path d="M52.8015 52.6313L51.4014 52.542L52.3858 37.1147L53.7641 37.204L52.8015 52.6313Z" fill="#B3B3B3"/>
<path d="M15.0422 34.1678L13.314 33.8776L15.3047 21.2188L17.033 21.4867L15.0422 34.1678Z" fill="#B3B3B3"/>
<path d="M54.8799 35.6185L53.1516 35.3506L55.1424 22.6694L56.8707 22.9597L54.8799 35.6185Z" fill="#B3B3B3"/>
<path d="M7.12292 31.0197L7.77923 27.4922L62.3836 28.028L61.7054 31.3546L7.12292 31.0197Z" fill="#AF91CF"/>
<path d="M7.97607 26.7106L8.28235 23.9868L63.1711 24.5003L62.5586 27.1124L7.97607 26.7106Z" fill="#AF91CF"/>
<path d="M8.39185 22.6918L8.93876 20.1689L63.7619 20.8387L63.2806 23.0713L8.39185 22.6918Z" fill="#AF91CF"/>
<path d="M0.844238 38.4986V35.8418H58.1176V38.253L0.844238 38.4986Z" fill="#595959"/>
<path d="M0.844238 35.8418H58.1176L61.4647 33.8994H5.43836L0.844238 35.8418Z" fill="#AF91CF"/>
<path d="M58.1177 35.8418V38.253L61.4648 35.8418V33.8994L58.1177 35.8418Z" fill="#B3B3B3"/>
<path d="M63.7618 20.8389L64.1556 21.0175L63.7618 23.0715H63.2805L63.7618 20.8389Z" fill="#B3B3B3"/>
<path d="M63.1713 24.5L63.5869 24.7679L62.9963 27.1121H62.5587L63.1713 24.5Z" fill="#B3B3B3"/>
<path d="M62.4055 28.0054L62.8212 28.2733L62.2086 31.3543H61.7054L62.4055 28.0054Z" fill="#B3B3B3"/>
<path d="M40.9881 49.8849C41.535 49.3714 43.7445 51.0905 43.8539 51.2914C43.9196 51.4477 43.7445 52.0282 43.1976 51.9835C42.1038 51.8942 39.8724 50.9119 40.9881 49.8849Z" fill="#B3B3B3"/>
<path d="M47.3544 44.7948C47.0262 45.4645 46.72 46.0897 46.3699 46.7371C46.0418 47.3846 45.6918 48.032 45.3417 48.6572C44.6198 49.9074 43.8541 51.1577 42.9134 52.3633C42.5196 52.8768 41.7758 52.9437 41.2727 52.5419C40.8351 52.1847 40.7257 51.5595 40.9883 51.0684V51.0237C41.5789 49.8851 42.0602 48.6125 42.5196 47.3176C42.7384 46.6701 42.9353 46.0227 43.1322 45.3529C43.3291 44.7055 43.526 44.0357 43.6791 43.4106C43.9635 42.3389 45.0355 41.6915 46.0855 41.9594C47.1356 42.2496 47.77 43.3436 47.4857 44.4152C47.4638 44.5269 47.42 44.6608 47.3544 44.7724V44.7948Z" fill="#F4BFA7"/>
<path d="M29.8528 52.9211C29.8528 52.9211 29.9403 52.5862 31.2529 52.4969C32.5655 52.4299 32.9156 52.6531 32.8499 52.9211C32.7843 53.1666 31.7561 53.9704 31.7561 53.9704L29.6122 53.5462L29.8528 52.9211Z" fill="#B3B3B3"/>
<path d="M31.8437 49.4159C32.0844 50.175 32.2813 50.8894 32.4563 51.6708C32.5656 52.0504 32.6313 52.4299 32.7188 52.8541C32.7844 53.256 32.85 53.6579 32.85 54.2383C32.85 54.9751 32.2594 55.5779 31.5374 55.5779C30.8593 55.5779 30.3123 55.0421 30.2467 54.35V54.2383C30.2248 54.082 30.1592 53.7248 30.0717 53.4123C30.0061 53.0997 29.8967 52.7648 29.7873 52.4299C29.5904 51.7601 29.3498 51.0457 29.0872 50.3983C28.8028 49.6169 29.1748 48.7461 29.9186 48.4559C30.6842 48.1657 31.5156 48.5452 31.8218 49.3043L31.8437 49.4159Z" fill="#F4BFA7"/>
<path d="M39.6755 7.57732C38.8223 9.72061 38.1222 10.2788 36.0658 10.2788C34.0094 10.2788 34.3813 6.70661 32.7843 5.07682C31.778 4.0275 31.253 0.232089 33.6156 0.700933C35.3439 1.03582 35.8252 0.5 36.6784 0.5C37.6628 0.5 39.1286 1.72793 40.0693 2.93353C41.1412 4.34006 40.5068 5.47868 39.6755 7.57732Z" fill="#E0995E"/>
<path d="M52.0797 35.1718C51.0953 38.6323 46.5012 47.8306 45.6917 48.5004C45.2979 48.8799 44.1603 48.5673 43.8759 48.5004C43.5478 48.4334 42.4977 47.8083 42.3665 47.3394C42.2133 45.7766 43.5915 43.0305 45.4292 37.1811C44.4885 37.0025 43.5259 37.0248 42.6071 37.0472C41.3601 37.0918 40.1569 37.1141 39.0849 36.623C38.5161 36.3551 37.8598 36.3104 37.2692 36.5113L37.2473 36.5337C34.9502 37.2927 31.6687 36.8685 29.8311 37.1811C29.853 38.2081 32.6751 47.0492 32.3688 50.6883C32.2156 51.5144 29.7873 52.0948 29.2623 51.3358L29.1966 51.2241C28.6497 49.8622 28.2341 48.3664 27.6215 46.9599C26.0464 43.3431 24.3181 39.6816 22.6555 36.3551C21.4523 34.7253 22.2398 32.4034 23.6837 31.622C26.4183 30.4164 31.7562 28.5633 35.5628 28.9652C36.591 29.0768 37.5098 29.3447 38.2317 29.8582C39.5662 28.7419 41.6664 28.3847 43.7447 29.3001C47.0043 30.1708 51.4015 31.0415 52.036 34.5466C52.0797 34.7699 52.0797 34.9708 52.0797 35.1718Z" fill="url(#paint0_linear_2002_11356)"/>
<path d="M44.2258 23.4958C44.2258 23.4958 43.7445 27.8717 45.3634 29.9257C45.2978 30.0596 45.1446 30.1936 44.904 30.3052C44.554 30.5061 43.9852 30.6401 43.307 30.7517C42.957 30.7964 42.5413 30.8634 42.1038 30.8857C38.6691 31.1759 33.4843 30.7741 31.7342 29.9703C31.3623 29.7917 31.1216 29.6131 31.1216 29.3898C32.653 28.6531 31.8873 24.7684 31.7561 23.8977C31.6467 23.027 30.2685 16.7534 30.0934 15.972C29.9184 15.2575 29.8528 14.7217 29.8965 14.2975C30.0497 12.1096 32.8937 13.1142 37.8159 9.07324C42.1913 12.3105 46.5885 11.3728 46.5885 14.0966C46.5885 14.3422 46.2385 15.7487 45.8009 17.4008C45.1009 19.9683 44.2258 23.1609 44.2258 23.4958Z" fill="#B3B3B3"/>
<path d="M42.2351 24.7235L42.2788 24.6345C42.3224 24.5454 42.2569 24.679 42.2351 24.7235Z" fill="#F4BFA7"/>
<path d="M38.5161 15.3016C38.3192 15.5472 38.1442 15.7928 37.9473 15.9268H37.9254C37.5973 16.15 37.2035 16.083 36.5034 15.2347C35.7377 14.2746 34.622 12.6895 34.797 11.7072C34.8627 11.4169 35.0158 11.1713 35.3002 11.0374L35.3221 11.0151L35.3877 10.9927C35.4533 10.9704 35.4752 10.4792 35.4752 9.83179C35.4752 8.58153 35.3877 6.72848 35.3877 6.72848C35.3877 6.72848 38.9974 5.3666 39.2599 6.10335L39.3474 8.3806L39.3693 8.8941L39.413 10.0774C41.5569 10.9704 39.9381 13.6272 38.5161 15.3016Z" fill="#F4BFA7"/>
<path d="M29.5029 51.5591C29.4154 51.5145 29.3278 51.4251 29.2622 51.3358C29.3278 51.4251 29.4154 51.4921 29.5029 51.5591ZM29.1966 51.2242L29.1528 51.1572C28.6059 49.773 28.234 48.3665 27.6215 46.96C28.234 48.3665 28.6497 49.84 29.1966 51.2242ZM45.2979 48.7014C45.3197 48.7014 45.3197 48.6791 45.3197 48.6567C45.4729 48.6344 45.6041 48.5898 45.6917 48.5005C45.6479 48.6344 45.4948 48.6791 45.2979 48.7014ZM45.7354 48.4558C45.8229 48.3888 45.9323 48.2325 46.0636 48.0539C46.0636 48.1432 46.0636 48.1656 45.7354 48.4558ZM42.432 47.5404C42.3883 47.4735 42.3664 47.4065 42.3664 47.3395C42.3883 47.4065 42.4101 47.4511 42.4539 47.5181C42.432 47.5181 42.432 47.5181 42.432 47.5404Z" fill="#AF91CF"/>
<path d="M45.1448 48.7018C44.7948 48.7018 44.3573 48.6125 44.0729 48.5455C44.3354 48.6125 44.7073 48.6795 45.0355 48.6795C45.1448 48.6795 45.2324 48.6795 45.3199 48.6572C45.3199 48.6795 45.3199 48.7018 45.298 48.7018C45.2542 48.7018 45.2105 48.7018 45.1448 48.7018ZM43.7666 48.4786C43.4166 48.3446 42.6728 47.9204 42.4321 47.5409C42.4321 47.5186 42.4321 47.5186 42.454 47.5186C42.6946 47.8981 43.4166 48.3446 43.7666 48.4786Z" fill="#AE6F6A"/>
<path d="M30.2467 51.6933C29.9623 51.6933 29.6998 51.6487 29.5029 51.5594C29.6998 51.6487 29.9405 51.6933 30.2249 51.6933C30.8155 51.6933 31.5156 51.4924 31.9531 51.2021C31.5156 51.5147 30.8374 51.6933 30.2467 51.6933Z" fill="#AE6F6A"/>
<path d="M30.2249 51.693C29.9405 51.693 29.6998 51.6483 29.5029 51.559C29.4154 51.4921 29.3279 51.4251 29.2623 51.3358L29.1967 51.2242C28.6498 49.8399 28.2341 48.3664 27.6215 46.9599C29.2185 43.9236 27.5778 37.1365 26.5277 35.3281C28.1028 35.6183 29.9186 35.73 31.6031 35.73C34.2283 35.73 36.5035 35.4397 37.0723 35.0825C37.3786 34.9039 37.7724 34.8369 38.1661 34.8369C38.9756 34.8369 39.8288 35.1272 40.1132 35.3281C40.4851 35.5737 43.4822 36.1318 45.2542 36.1318C45.648 36.1318 45.9761 36.1095 46.2168 36.0425C45.7355 37.9179 44.0947 44.3254 46.5887 46.8706C46.0636 47.7413 46.0636 47.9422 46.0636 48.0539C45.9324 48.2325 45.823 48.3888 45.7355 48.4557C45.7355 48.4781 45.7136 48.5004 45.6917 48.5004C45.6042 48.5897 45.473 48.6343 45.3198 48.6567C45.2323 48.679 45.1448 48.679 45.0354 48.679C44.7073 48.679 44.3354 48.612 44.0729 48.545C44.0072 48.545 43.9197 48.5227 43.876 48.5004C43.8541 48.5004 43.8103 48.4781 43.7666 48.4781C43.4166 48.3441 42.6946 47.8976 42.454 47.518C42.4102 47.4511 42.3884 47.4064 42.3665 47.3394C42.3665 47.3171 42.3665 47.2948 42.3665 47.2725C42.4759 45.8659 43.5916 43.0305 45.4292 37.1811C44.7948 37.0695 44.1822 37.0472 43.5478 37.0472C43.2415 37.0472 42.9353 37.0472 42.6071 37.0472C42.3008 37.0695 41.9946 37.0695 41.7102 37.0695C40.7695 37.0695 39.8944 37.0025 39.085 36.623C38.7568 36.4667 38.4068 36.3774 38.0568 36.3774C37.7942 36.3774 37.5317 36.4221 37.2692 36.5114L37.2473 36.5337C34.9503 37.2928 31.6687 36.8686 29.8311 37.1811C29.853 38.1635 32.3907 46.1562 32.3907 50.0855C32.3907 50.3088 32.3907 50.5097 32.3688 50.6883C32.325 50.8669 32.1719 51.0455 31.9531 51.2018C31.5156 51.4921 30.8156 51.693 30.2249 51.693Z" fill="url(#paint1_linear_2002_11356)"/>
<path d="M42.1038 30.8858C42.7382 30.6402 43.4164 30.3277 43.9633 29.9928C45.4072 29.1221 42.8914 25.3713 42.2351 25.282C42.2132 25.282 42.1913 25.282 42.1913 25.282C41.885 25.282 41.36 25.5053 40.8131 25.7508C40.2443 25.9741 39.6755 26.1974 39.3254 26.1974C39.1286 26.1974 38.9973 26.1304 38.9535 25.9741C38.8442 25.5053 41.9069 24.1434 42.4976 20.7052C42.3007 18.7182 43.5914 15.3916 43.5914 15.3916L45.801 17.4009C45.5166 18.4503 45.2103 19.5889 44.9259 20.6159C44.6852 21.5759 44.4446 22.4019 44.3352 22.9378C44.2696 23.228 44.2258 23.4289 44.2258 23.4959C44.2258 23.4959 44.1602 24.0987 44.1602 24.9471C44.1602 26.4206 44.3352 28.6309 45.3634 29.9258C45.2978 30.0597 45.1447 30.1937 44.904 30.3053L43.307 30.7518C42.957 30.7965 42.5413 30.8635 42.1038 30.8858ZM42.3007 24.6122C42.3007 24.6122 42.2569 24.7015 42.2351 24.7238L42.2788 24.6345C42.3007 24.6122 42.3007 24.6122 42.3007 24.6122Z" fill="#595959"/>
<path d="M42.2351 24.7232C42.2569 24.7009 42.3006 24.6118 42.3006 24.6118C42.3006 24.6118 42.3006 24.6118 42.2788 24.6341L42.2351 24.7232Z" fill="#AE8372"/>
<path d="M45.1009 13.0024C42.8476 14.8555 43.0882 18.9411 43.1101 20.6379C43.132 23.2724 43.0007 25.2594 42.9789 25.2817L42.8914 25.371C43.9196 25.7059 45.0134 26.8222 45.9322 27.1124C46.1947 25.7506 46.5885 22.5356 46.6323 22.0444C46.6979 20.6156 47.6386 10.9485 45.1009 13.0024Z" fill="#B3B3B3"/>
<path d="M38.2318 30.2826C37.8818 31.0417 38.91 32.3143 39.6975 31.9124C40.5507 31.4882 43.2197 29.9924 43.8541 29.5682C45.0136 28.7868 45.2542 28.4072 45.7793 27.7598C45.9105 27.5589 45.9105 27.2686 46.0199 26.6435C46.2168 25.4379 43.5479 23.7858 42.9791 25.2816C42.2352 26.264 39.2163 29.4566 38.2318 30.2826Z" fill="#F4BFA7"/>
<path d="M35.6502 30.8188C35.5846 30.8188 35.4096 30.7741 35.1908 30.7295C35.3439 30.7518 35.5189 30.7741 35.6721 30.7741C35.694 30.7965 35.694 30.8188 35.6502 30.8188Z" fill="url(#paint2_linear_2002_11356)"/>
<path d="M35.672 30.7738C35.5188 30.7738 35.3438 30.7515 35.1907 30.7292C34.3593 30.5506 32.7186 30.0817 31.7341 29.9701C31.3622 29.7915 31.1216 29.6129 31.1216 29.3896C31.8654 29.0324 32.0623 27.9384 32.0623 26.7998C32.0623 25.5942 31.8216 24.344 31.756 23.8974C31.7123 23.4956 31.3841 21.8881 31.0122 20.236C31.8435 17.6015 31.8873 15.5922 31.6685 14.3643C31.7998 14.9671 32.3029 17.5792 32.2811 20.035C32.2592 22.8481 32.5217 22.8258 32.8061 25.2816C33.0905 27.7375 35.0594 30.2157 35.672 30.7738Z" fill="#595959"/>
<path d="M22.1961 25.6167C22.1961 25.6167 24.2088 25.5051 25.5432 25.3488C25.8714 25.3041 26.1777 25.3488 26.4839 25.3711C26.9871 25.4381 27.4903 25.4828 27.9934 25.2595C28.5185 25.2148 28.9123 24.6567 29.0216 24.7237C29.3498 23.4288 30.2467 22.5581 28.5185 21.5087C27.9278 21.3301 27.2715 21.5534 26.6808 21.6427C25.937 21.7543 22.218 23.3395 21.1898 24.0539C20.446 24.5674 21.4304 26.1079 22.1961 25.6167Z" fill="#F4BFA7"/>
<path d="M35.0595 11.7297C34.972 11.7297 34.9064 11.7297 34.8408 11.7074C34.8189 11.7074 34.8189 11.7074 34.797 11.7074C34.8189 11.6181 34.8408 11.5288 34.8845 11.4618C35.1033 11.4618 35.3658 11.3949 35.6283 11.2609C37.2034 10.5465 38.4285 10.1 39.1286 8.47016L39.3474 8.38086L39.3692 8.89436H39.3474C39.3474 8.89436 39.2161 10.0553 36.2409 11.4618C35.8252 11.6404 35.3658 11.7297 35.0595 11.7297Z" fill="#FFDBBB"/>
<path d="M30.7279 12.9575C31.406 12.511 32.653 15.4134 30.8372 20.7939C30.2247 22.6023 29.109 24.634 29.0215 24.7233C29.2402 24.3661 27.9276 22.0218 26.6807 21.6423C27.9058 18.5167 28.3871 14.431 30.7279 12.9575Z" fill="#B3B3B3"/>
<path d="M39.5444 6.92978C39.0412 9.8768 37.6192 10.368 35.6284 11.261C33.2657 12.355 32.5657 8.53724 32.872 5.56789C33.0688 3.58089 34.5346 1.63853 36.6566 2.01807C38.8006 2.41994 40.0694 3.98275 39.5444 6.92978Z" fill="#F4BFA7"/>
<path d="M32.8937 5.3443C32.8937 5.3443 33.4625 3.35729 34.097 3.31264C34.2938 3.71451 37.1597 3.96009 37.7504 4.1387C38.1223 4.27266 37.7285 5.47826 37.7941 5.99175C37.816 6.19269 37.9254 6.34897 38.1004 6.43827C39.0192 6.9741 39.3474 8.24667 39.3474 8.24667C39.3474 8.24667 41.3163 3.22334 38.7129 2.241C36.1315 1.28098 32.7625 1.54889 32.8937 5.3443Z" fill="#E0995E"/>
<path d="M39.0849 7.15294C38.8443 7.66644 38.4067 7.979 38.1442 7.84504C37.8817 7.71109 38.2755 7.19759 38.1223 6.66177C37.9473 6.10362 38.5818 5.72408 39.063 5.94734C39.5443 6.19292 39.3474 6.61712 39.0849 7.15294Z" fill="#F4BFA7"/>
<path d="M39.6975 31.9125C39.6975 31.9125 38.4067 33.2967 37.9036 33.386C37.3785 33.4976 35.519 31.4883 36.2847 31.2427C37.0723 30.9748 38.2317 30.2827 38.2317 30.2827L39.6975 31.9125Z" fill="#F4BFA7"/>
<path d="M37.5972 16.0388C37.3347 16.0388 36.9847 15.8155 36.5034 15.235C35.7815 14.342 34.7751 12.9131 34.7751 11.9308C34.7751 11.8415 34.797 11.7745 34.797 11.7075C34.8189 11.7075 34.8189 11.7075 34.8408 11.7075C34.8627 11.7298 34.9064 11.7745 34.9064 11.8861C34.972 12.6006 35.7158 14.0517 36.1753 14.6322C36.6565 15.235 37.0285 15.7262 37.3347 15.8378C37.5097 15.9271 37.7285 15.9271 37.8379 15.9271C37.8816 15.9271 37.9254 15.9271 37.9254 15.9271C37.8379 15.9941 37.7285 16.0388 37.5972 16.0388Z" fill="#ED8B6A"/>
<path d="M33.6377 55.734C33.6377 56.0912 33.572 56.3814 33.3751 56.5377C33.0908 56.761 32.6313 57.0512 32.0407 57.2968C31.45 57.52 31.0125 57.9666 30.6843 58.5024C30.5749 58.7256 30.3999 58.9042 30.1593 58.9936C29.4155 59.2615 26.9871 59.8643 26.2215 59.1945C25.9808 58.9936 25.7839 58.748 25.6745 58.5024C25.4558 57.9442 25.6745 57.2745 26.8996 56.3591C28.9998 54.774 29.328 53.479 29.853 52.9209C30.0499 53.747 32.8501 52.9209 32.8501 52.9209C32.8501 52.9209 33.6377 54.6177 33.6377 55.734Z" fill="#595959"/>
<path d="M33.6375 55.7344C33.6375 56.0916 33.5718 56.3818 33.3749 56.5381C33.0905 56.7614 32.6311 57.0516 32.0405 57.2972C31.4498 57.5205 31.0122 57.967 30.6841 58.5028C30.5747 58.7261 30.3997 58.9047 30.159 58.994C29.4152 59.2619 26.9869 59.8647 26.2212 59.1949C25.9806 58.994 25.7837 58.7484 25.6743 58.5028C25.7618 58.4805 25.8275 58.4358 25.8493 58.4135C26.0243 58.2795 26.1119 58.0339 26.3087 58.0339C26.5056 58.0339 26.5494 58.3688 26.8119 58.5698C27.0744 58.793 29.3496 58.7484 29.8747 58.5698C30.4216 58.4135 30.5747 57.3642 31.7123 56.9176C32.8499 56.4711 33.6375 55.7344 33.6375 55.7344Z" fill="#B3B3B3"/>
<path d="M44.6634 57.3866L44.6197 57.5428C44.4665 57.8331 43.5915 57.9447 42.4976 57.9894C41.7319 58.0117 40.9006 56.94 40.7912 56.2703C40.6818 55.5782 40.9662 54.194 40.7912 53.8591C40.5287 53.3456 39.763 52.9214 39.8943 52.1176C39.9162 51.9837 39.938 51.8721 39.9599 51.7828C40.1349 51.1576 40.3974 50.6888 40.3974 50.6888C40.5943 50.3092 40.8131 50.019 40.9225 49.9297C41.1194 49.7064 41.2725 50.153 41.2725 50.153C41.2725 50.153 41.3381 51.6488 42.7164 51.7828C43.8977 51.8944 43.8758 51.4255 43.854 51.2916C43.8758 51.3809 44.0071 51.7604 43.8321 52.6758C43.7883 52.966 44.0727 55.2879 44.6197 55.8014C45.0572 56.2256 44.8384 57.007 44.6634 57.3866Z" fill="#595959"/>
<path d="M44.6634 57.386L44.6197 57.5423C44.4665 57.8326 43.5915 57.9442 42.4976 57.9888C41.7319 58.0112 40.9006 56.9395 40.7912 56.2697C40.6818 55.5776 40.9662 54.1934 40.7912 53.8585C40.5287 53.345 39.763 52.9208 39.8943 52.1171C39.9162 51.9832 39.938 51.8715 39.9599 51.7822C40.1349 52.1171 40.6818 53.0995 40.9662 53.4343C41.2725 53.7692 41.0537 55.399 41.1413 55.9125C41.2288 56.426 41.9288 57.5646 42.3664 57.6316C42.8039 57.6763 43.5696 56.8279 43.8758 56.8056C44.1821 56.8056 44.1384 57.0958 44.379 57.2967C44.4665 57.4084 44.5978 57.4084 44.6634 57.386Z" fill="#B3B3B3"/>
<path d="M29.0653 34.0334C28.6059 34.0781 28.2121 33.7432 28.1684 33.2967V33.1627C28.1684 33.0511 28.1246 32.7832 28.0371 32.6046C27.9715 32.4037 27.884 32.2027 27.7746 32.0464L27.6871 31.9125L27.6214 31.8455V31.8232L27.4902 31.7562C27.3808 31.6892 27.2277 31.5999 27.0308 31.5329C26.6589 31.399 26.1995 31.3097 25.7619 31.2427H25.74C25.3025 31.1981 24.7993 31.1534 24.3837 31.1757C23.618 31.2204 22.9617 30.6176 22.9179 29.8138C22.8961 29.0548 23.4867 28.385 24.2524 28.3403C24.4056 28.3403 24.5368 28.3627 24.6681 28.4073H24.7337C25.3025 28.5859 25.8057 28.7422 26.3307 28.9431C26.8558 29.1441 27.3808 29.3673 27.9058 29.6799C28.1902 29.8362 28.4528 30.0148 28.7372 30.2827C28.8684 30.4166 28.9997 30.5953 29.1309 30.7739L29.2185 30.9301L29.2622 31.0418C29.2841 31.1087 29.306 31.1757 29.3278 31.265C29.4372 31.5553 29.5247 31.8232 29.6122 32.1357C29.6779 32.4483 29.7435 32.6939 29.7872 33.0958V33.1181C29.831 33.5646 29.5028 33.9888 29.0653 34.0334Z" fill="#D8D8D8"/>
<path d="M25.0182 30.2602C24.8432 30.1709 21.8242 31.5328 19.549 32.5598C19.0896 32.7607 18.6739 32.9617 18.3239 33.1179C17.7551 33.3635 17.3394 33.5645 17.0988 33.6314C17.0988 33.6314 15.7205 33.5868 14.583 33.1403C13.9485 32.8724 13.4016 32.5151 13.1828 31.957C12.7016 30.6398 12.1546 30.0816 14.2767 28.4518C14.5611 28.2286 14.9111 28.0276 15.3049 27.8267C16.4644 27.2685 18.0395 26.7327 19.549 26.1299C20.9491 25.5941 22.3054 24.969 23.2024 24.2322C24.5588 23.7857 27.2277 23.7857 27.6434 25.9736C27.709 26.2192 27.7309 26.4648 27.7746 26.7104C27.9715 28.9653 27.184 31.6221 25.0182 30.2602Z" fill="#B3B3B3"/>
<path d="M28.2122 23.6966C27.9059 24.2101 27.6872 24.7683 27.7091 25.3711C27.7091 25.5943 27.7091 25.8176 27.6434 25.9739C27.4028 26.7106 26.2214 27.0902 25.5651 26.532C25.3026 26.3088 25.0838 26.1078 24.9307 25.9292C24.6244 25.5943 24.2525 25.3488 23.815 25.1702C23.4212 25.0139 23.1587 24.7236 23.2024 24.2325C23.2681 23.3618 23.1149 22.7366 22.9618 22.2231C22.743 21.665 22.8087 21.0622 23.0274 20.5487C23.2681 20.0352 23.7056 19.6333 24.2744 19.4547C24.7119 19.2984 25.237 19.2315 25.8277 19.3208C26.5715 19.4547 27.184 20.0129 27.4028 20.7496C27.5559 21.2631 27.7528 22.2455 28.1247 22.8483C28.3654 23.2501 28.3435 23.4957 28.2122 23.6966Z" fill="#D8D8D8"/>
<path d="M25.3681 24.2322C25.6744 24.009 26.1995 23.7187 26.7245 23.8304C26.987 23.875 27.0964 24.1652 26.987 24.4108C26.7026 25.036 26.7026 25.0583 26.462 25.1922C26.2213 25.3262 25.6744 24.969 25.3463 24.7011C25.1931 24.5894 25.1931 24.3439 25.3681 24.2322Z" fill="#595959"/>
<path d="M25.8713 25.9736C26.112 25.9959 26.3307 26.0182 26.5495 25.9512C26.7683 25.9066 26.9652 25.795 27.1621 25.6387C27.0964 25.7503 27.0308 25.8619 26.9214 25.9289C26.8339 26.0182 26.7027 26.0629 26.5933 26.1075C26.3307 26.1522 26.0682 26.1298 25.8713 25.9736Z" fill="#595959"/>
<path d="M27.2058 21.62C27.2277 21.7986 27.0308 21.9772 26.7683 22.0218C26.5058 22.0442 26.287 21.9325 26.2651 21.7539C26.2214 21.553 26.4183 21.3744 26.6808 21.3521C26.9433 21.3074 27.1621 21.419 27.2058 21.62Z" fill="#595959"/>
<path d="M24.6901 22.1338C24.7339 22.3124 24.5588 22.5133 24.2963 22.6026C24.0119 22.6696 23.7713 22.6026 23.7057 22.4464C23.6619 22.2678 23.8369 22.0668 24.1213 21.9775C24.3838 21.9105 24.6464 21.9775 24.6901 22.1338Z" fill="#595959"/>
<path d="M27.6653 19.9681C28.0809 20.1914 28.3872 20.504 28.6497 20.8612C28.8904 21.2184 29.1091 21.6203 29.2185 22.0668C29.3498 22.5133 29.4154 22.9821 29.3498 23.451C29.3279 23.9198 29.1529 24.3664 28.9122 24.7459C28.8247 24.8798 28.6278 24.9245 28.4966 24.8352C28.4091 24.7905 28.3653 24.7012 28.3653 24.6119V24.5673C28.2997 24.1654 28.2997 23.8305 28.2122 23.4733C28.1465 23.1384 28.0809 22.8035 27.9715 22.4686C27.7528 21.7989 27.4684 21.1291 27.2277 20.37V20.3254C27.1621 20.1691 27.2496 19.9905 27.4246 19.9458C27.5121 19.9235 27.5778 19.9235 27.6653 19.9681Z" fill="#595959"/>
<path d="M23.9899 26.0631C23.793 25.8845 23.618 25.6836 23.4867 25.4603L23.4211 25.2817C23.3117 24.9915 23.2461 24.7459 23.2023 24.478C23.2023 24.3887 23.2023 24.3217 23.2023 24.2324C23.1586 24.6566 23.3555 24.9245 23.6836 25.1031C23.7711 25.4603 23.8805 25.7952 23.9899 26.0631Z" fill="#595959"/>
<path d="M23.6837 25.1028C23.3556 24.9242 23.1587 24.6562 23.2024 24.2321C23.2024 24.0758 23.2243 23.9418 23.2243 23.8079C23.2243 23.6069 23.2024 23.406 23.1805 23.2274C23.2024 22.9595 23.2462 22.6469 23.2899 22.3567C23.3118 22.2004 23.3337 22.0664 23.3556 21.9102C23.3774 22.0218 23.3774 22.1111 23.3993 22.2004C23.2462 22.446 23.268 22.6916 23.3556 22.6916C23.3774 22.6916 23.3774 22.6916 23.3993 22.6692C23.3993 22.7139 23.3993 22.7809 23.3993 22.8255C23.3337 23.4953 23.4868 24.366 23.6837 25.1028Z" fill="#B3B3B3"/>
<path d="M23.4429 21.1513C23.421 21.5531 23.3554 21.9773 23.2898 22.3569C23.246 22.7364 23.1804 23.116 23.1585 23.4508C23.1366 23.7857 23.1585 24.0983 23.1804 24.4109C23.2242 24.7011 23.3117 24.9467 23.421 25.2816L23.4867 25.4602C23.6179 25.8397 23.421 26.2639 23.0491 26.3979C22.8304 26.4648 22.5897 26.4425 22.4147 26.3086C21.9334 25.996 21.5615 25.5048 21.3428 24.9467C21.1459 24.3885 21.124 23.8081 21.1677 23.2722C21.2115 22.7364 21.3646 22.2452 21.5615 21.7764C21.7803 21.3299 22.0428 20.928 22.4366 20.5485C22.6772 20.3252 23.0491 20.3252 23.2898 20.5931C23.3992 20.7048 23.4648 20.8834 23.4429 21.0396V21.1513Z" fill="#595959"/>
<path d="M23.3993 22.6694C23.3993 22.5131 23.3993 22.3568 23.3993 22.2005C23.5306 21.9772 23.7931 21.7317 24.2962 21.687C24.0993 21.7317 23.7712 21.8656 23.5524 22.4461C23.4868 22.58 23.443 22.647 23.3993 22.6694Z" fill="#595959"/>
<path d="M23.3555 22.6923C23.268 22.6923 23.2462 22.4468 23.3993 22.2012C23.3993 22.3575 23.3993 22.5137 23.3993 22.67C23.3774 22.6923 23.3774 22.6923 23.3555 22.6923Z" fill="#BFBCA1"/>
<path d="M27.6214 21.5532C27.6214 21.5087 27.5996 21.4642 27.5996 21.4419C27.5996 21.4419 27.5996 21.4419 27.5996 21.4642C27.5996 21.4642 27.6214 21.4864 27.6214 21.5087C27.6214 21.531 27.6214 21.5532 27.6214 21.5532Z" fill="#595959"/>
<path d="M27.5559 21.5753C27.5121 21.5753 27.4246 21.553 27.3152 21.486C27.0308 21.2851 26.8121 21.2404 26.6152 21.2404C26.462 21.2404 26.3526 21.2851 26.2651 21.3074C26.5058 21.1734 26.7245 21.1064 26.9214 21.1064C27.2058 21.1064 27.4027 21.2404 27.534 21.352C27.5559 21.3744 27.5777 21.3967 27.5996 21.4413C27.5996 21.4637 27.6215 21.5083 27.6215 21.553C27.6215 21.5753 27.5996 21.5753 27.5559 21.5753Z" fill="#595959"/>
<path d="M27.6213 21.5081C27.6213 21.486 27.5996 21.4639 27.5996 21.4639C27.6213 21.486 27.6213 21.486 27.6213 21.5081Z" fill="#595959"/>
<path d="M26.1338 21.3967C26.1338 21.3967 26.1774 21.3522 26.2647 21.3076C26.2211 21.3522 26.1774 21.3744 26.1338 21.3967Z" fill="#B3B3B3"/>
<path d="M28.9777 34.0334C28.5621 34.0334 28.2121 33.7208 28.1683 33.2966V33.1626V33.1403C28.1683 33.0064 28.1027 32.7831 28.037 32.6045C27.9714 32.4036 27.8839 32.2026 27.7745 32.0464L27.687 31.9124L27.6214 31.8454V31.8231L27.4901 31.7561C27.3807 31.6891 27.2276 31.5998 27.0307 31.5329C26.987 31.5105 26.9432 31.5105 26.8776 31.4882C26.7901 31.198 26.6369 30.8854 26.4619 30.5728C26.5057 30.5728 26.5713 30.5505 26.6369 30.5059C27.0088 30.3273 27.2714 29.9477 27.4682 29.4565C27.4682 29.4565 27.1838 30.4612 27.6433 31.198C28.0808 31.9124 28.3214 32.2473 28.3652 32.8947C28.4089 33.5422 28.584 33.8548 29.0652 34.0334C29.0215 34.0334 28.9996 34.0334 28.9777 34.0334Z" fill="#B3B3B3"/>
<path d="M26.6371 30.5059C26.8777 30.3942 27.0746 30.1933 27.2278 29.9254C27.3153 29.7914 27.4028 29.6352 27.4684 29.4565C27.2715 29.9477 27.009 30.3273 26.6371 30.5059Z" fill="#595959"/>
<path d="M27.709 28.43C27.6433 29.0105 27.4683 29.5463 27.2277 29.9259C27.0746 30.1938 26.8777 30.3947 26.637 30.5063C26.2214 30.7296 25.6744 30.685 25.0181 30.2608C24.8212 30.1491 21.4522 31.6896 19.1333 32.7389C18.8489 32.8729 18.5645 33.0069 18.3239 33.1185C18.5864 32.672 18.8926 32.0245 18.8926 31.3324C18.9145 30.3947 19.0239 29.4794 19.3958 28.631C19.724 27.8496 20.0959 27.3584 21.5397 26.8672C22.196 26.644 23.1805 26.9342 24.1649 27.2244C25.7182 27.6933 27.2933 28.1398 27.7746 26.7109C27.8184 27.2914 27.7965 27.8719 27.709 28.43Z" fill="#D8D8D8"/>
<path d="M17.5364 33.4529C17.4708 33.4306 17.3833 33.4306 17.2739 33.4083C18.0396 31.265 17.8208 30.5506 16.7707 29.5012C16.6176 29.345 16.3332 29.077 15.9832 28.8984C16.0925 28.9208 18.3896 29.4119 18.1271 32.0687C18.1927 32.3143 18.3896 32.4483 18.6302 32.4483H18.6521C18.5427 32.6938 18.4333 32.9171 18.324 33.118C18.5646 33.0064 18.849 32.8725 19.1334 32.7385C19.2647 32.6938 19.3959 32.6269 19.5491 32.5599C19.0897 32.7608 18.674 32.9618 18.324 33.118C18.0177 33.252 17.7552 33.3636 17.5364 33.4529Z" fill="#B3B3B3"/>
<path d="M18.3239 33.1178C18.4332 32.9169 18.5426 32.6936 18.652 32.448C18.8708 32.448 19.1333 32.3141 19.3739 32.0685C19.8771 30.8629 20.1177 28.9428 20.5334 28.5186C20.4897 28.7866 19.8115 30.9299 19.7458 32.4703C19.6802 32.4927 19.6146 32.5373 19.549 32.5596C19.3958 32.6266 19.2646 32.6936 19.1333 32.7383C18.8489 32.8722 18.5645 33.0062 18.3239 33.1178ZM26.2651 30.3271C25.8495 29.8136 25.3025 29.4117 24.6244 29.4117C24.2306 29.4117 23.8149 29.5456 23.3555 29.8359C23.1805 29.9252 22.9836 30.0368 22.8086 30.1484C23.4649 29.5456 23.3117 28.6303 22.8305 28.0498C22.8523 28.0498 23.0274 28.1391 23.2242 28.2954C23.7055 28.6526 23.3117 29.2331 24.2087 29.2331C24.2962 29.2331 24.3618 29.2331 24.4712 29.2331C25.0619 29.3001 25.9151 29.4787 26.2651 30.3271Z" fill="#B3B3B3"/>
<path d="M26.462 30.5727H26.4402L26.6366 30.5059C26.5711 30.5504 26.5057 30.5727 26.462 30.5727Z" fill="#B3B3B3"/>
<path d="M26.9871 31.8904C26.9871 32.1359 26.9652 32.3146 26.8996 32.4708C26.5058 33.3862 25.1494 32.7387 25.1713 31.9127C24.8432 31.2876 24.7775 31.3322 24.7119 31.2206C23.8587 31.5108 23.2024 31.9573 22.6774 32.4262C22.1304 32.8727 21.6929 33.3639 21.2773 33.7434C18.4114 35.4625 20.4459 28.988 20.5334 28.5191C21.7585 25.9517 24.2525 28.8094 22.8086 30.1489C22.9836 30.0373 23.1805 29.9257 23.3555 29.8364C25.3463 28.5191 26.7464 30.5731 26.9871 31.8904Z" fill="#D8D8D8"/>
<path d="M21.671 31.3099C21.846 30.7964 22.8086 30.1489 22.8086 30.1489C22.8086 30.1489 22.7211 30.4615 21.671 31.3099Z" fill="#B3B3B3"/>
<path d="M26.2433 32.9175C25.7401 32.9175 25.1713 32.4486 25.1713 31.9351V31.9128C24.8432 31.2877 24.7775 31.3323 24.7119 31.2207C24.7119 31.2207 25.3682 31.6226 25.4995 31.9575C25.587 32.203 26.0245 32.6272 26.4621 32.6272C26.6152 32.6272 26.7683 32.5826 26.8996 32.471C26.7683 32.7835 26.5058 32.9175 26.2433 32.9175Z" fill="#B3B3B3"/>
<path d="M17.6018 33.4751C17.5143 33.4528 17.4049 33.4305 17.2737 33.4081C18.0393 31.2649 17.8206 30.5504 16.7705 29.5011C16.2892 29.0099 14.8235 27.7597 13.2046 29.4118C12.242 30.3941 12.3076 32.2249 12.7452 34.0556C12.9202 34.8147 14.0796 35.0826 15.1954 34.904C16.0048 34.837 16.9018 34.8147 17.1643 34.904C17.2518 34.9263 17.3174 34.9263 17.383 34.9263C17.6893 34.9263 17.9956 34.7254 18.0831 34.4128C18.2144 34.0109 17.9956 33.6091 17.6018 33.4751Z" fill="#D8D8D8"/>
<path d="M27.7089 28.4299C27.6433 29.0103 27.4683 29.5462 27.2277 29.9257C26.9433 29.7917 26.9214 28.988 27.162 28.5861C27.3152 28.3182 27.5339 28.3406 27.7089 28.4299Z" fill="#B3B3B3"/>
<path d="M19.1989 27.0681C19.1989 27.336 18.1925 27.7825 17.7988 27.6709C17.4269 27.5369 17.1206 28.2513 15.7642 28.0504C15.5017 28.0057 15.3704 27.9164 15.3048 27.8271C16.4643 27.269 18.0394 26.7332 19.5489 26.1304C20.2708 26.3313 19.1989 26.8671 19.1989 27.0681Z" fill="#D8D8D8"/>
<path d="M15.1078 33.8994C15.1078 33.8994 15.086 33.8994 15.0641 33.8994C15.961 33.5198 17.2736 33.4082 17.2736 33.4082C17.2736 33.4082 15.8516 33.8994 15.1078 33.8994Z" fill="#B3B3B3"/>
<path d="M21.1896 24.0537C21.1896 24.0537 19.8114 25.304 19.5926 25.5495C19.3957 25.7951 18.8707 26.5319 18.8488 26.9784C18.8269 27.4249 21.3427 26.4872 21.6709 25.5495C21.4302 25.3709 21.1896 24.0537 21.1896 24.0537Z" fill="#F4BFA7"/>
<path d="M36.2847 31.2427C36.2847 31.2427 35.4096 31.5329 35.5628 32.5153C35.7378 33.4976 35.7816 33.8771 36.1097 33.8995C36.4379 33.8995 38.013 34.0781 38.4505 33.8995C38.8881 33.7209 39.4131 33.0957 39.3693 32.9171C39.3256 32.7385 39.2381 32.4036 38.9537 32.359C38.6693 32.3143 36.2847 31.2427 36.2847 31.2427Z" fill="#F4BFA7"/>
<defs>
<linearGradient id="paint0_linear_2002_11356" x1="37.0729" y1="28.7793" x2="37.0729" y2="51.689" gradientUnits="userSpaceOnUse">
<stop stop-color="#9D6DD1"/>
<stop offset="1" stop-color="#6D3F9E"/>
</linearGradient>
<linearGradient id="paint1_linear_2002_11356" x1="36.5582" y1="34.8369" x2="36.5582" y2="51.693" gradientUnits="userSpaceOnUse">
<stop stop-color="#9D6DD1"/>
<stop offset="1" stop-color="#6D3F9E"/>
</linearGradient>
<linearGradient id="paint2_linear_2002_11356" x1="35.4386" y1="30.7295" x2="35.4386" y2="30.8188" gradientUnits="userSpaceOnUse">
<stop stop-color="#9D6DD1"/>
<stop offset="1" stop-color="#6D3F9E"/>
</linearGradient>
</defs>
</svg>
