<svg width="61" height="59" viewBox="0 0 61 59" fill="none" xmlns="http://www.w3.org/2000/svg">
<path d="M32.5034 52.096C33.0042 52.4813 33.6592 52.3465 34.3334 52.2116C34.6608 52.1538 35.0076 52.0768 35.335 52.096C36.0092 52.096 36.6834 50.5357 36.9724 49.7267C37.0687 49.5148 37.1265 49.3607 37.1457 49.3029C37.2806 49.014 37.3769 48.7058 37.4732 48.4361V48.4168C38.9372 44.1597 37.8199 41.0969 38.995 39.0358C40.8442 35.7804 38.8409 34.7017 37.9162 36.6472C37.2998 37.9571 36.8375 39.71 36.4908 41.5015C36.3174 42.349 36.1826 43.2159 36.067 44.0442C35.9322 44.8532 35.8359 45.643 35.7395 46.3364C35.6047 47.3381 34.9498 50.2083 33.9866 50.5357C31.3091 51.4604 32.4263 52.019 32.5034 52.096Z" fill="#FFDBBB"/>
<path d="M36.9918 49.7071C37.0689 49.5145 37.1267 49.3604 37.146 49.3026C37.146 49.3026 37.0882 49.4759 36.9918 49.7071ZM36.5295 41.2892C36.5488 41.2122 36.5681 41.1158 36.5681 41.0195L36.5873 41.0388C36.5681 41.1158 36.5488 41.2122 36.5295 41.2892Z" fill="#EDC199"/>
<path d="M33.7942 52.3078C33.852 52.0574 33.5245 51.6336 35.0077 50.9016C35.8553 50.4779 36.4332 49.6303 36.4717 48.6672C36.5488 46.6446 36.2406 43.4277 36.5295 41.2895C36.5488 41.2124 36.568 41.1161 36.5873 41.0391C36.9918 41.5977 37.5119 42.1756 38.2054 42.792C38.0705 43.89 37.7623 46.5675 37.4734 48.4167V48.436C37.3771 48.7057 37.2808 49.0139 37.1459 49.3028C37.1267 49.3606 37.0689 49.5147 36.9918 49.7073C36.6644 50.4779 35.759 52.0382 33.7942 52.3078Z" fill="#D67D49"/>
<path d="M31.1358 27.5551C30.5771 27.9211 30.4038 28.3642 33.5243 28.9035C33.8326 28.9421 34.16 28.9999 34.526 29.0576C34.9113 29.1154 35.2387 29.3273 35.4699 29.6163C35.5855 29.7704 35.6818 29.963 35.7203 30.1556C35.99 31.3307 36.1441 33.2377 36.1441 34.2394C36.1441 35.6841 33.1969 38.7276 38.8216 43.3122C40.2664 44.4872 42.8283 47.993 43.8492 50.9017C44.0419 51.4218 44.1574 51.9227 44.2345 52.4042C44.7546 55.9101 54.6364 54.9277 54.6172 49.6304C55.5225 47.2803 51.2654 41.1162 48.1449 36.7821C44.8509 32.1975 43.1173 30.5024 42.2119 28.7494C41.8652 28.0945 41.5762 27.4396 41.3065 26.8617C41.0947 26.3801 40.8828 25.9371 40.7094 25.5133C40.2471 24.4923 39.8426 23.7026 39.3995 23.3558C39.2454 23.221 39.0913 23.1439 38.9372 23.1247H38.8987C38.4171 23.0476 38.0511 22.9898 37.7429 22.9706C36.6642 22.8743 36.3945 23.1439 35.5662 23.8181C35.0269 24.2612 34.7572 24.3575 34.4297 24.3768C34.3527 24.3768 34.2949 24.3768 34.2178 24.3768C34.1408 24.396 34.0637 24.396 33.9674 24.396C33.2932 24.396 31.9448 24.0493 31.155 23.9915C30.9817 23.9723 30.8275 23.9723 30.7312 24.0108C30.5001 24.0686 30.4808 24.4346 30.6157 24.9161C30.8275 25.6481 31.4054 26.6113 32.0026 26.8039C33.3895 27.2469 34.5645 27.5937 31.1358 27.5551Z" fill="#595959"/>
<path d="M33.5244 28.9035C33.8326 28.9421 34.1601 28.9999 34.5261 29.0576C34.9114 29.1154 35.2388 29.3273 35.47 29.6163C35.5856 29.7704 35.6819 29.963 35.7204 30.1556C35.9901 31.3307 36.1442 33.2377 36.1442 34.2394C36.1442 35.6648 33.2933 38.612 38.5328 43.081C38.6291 43.1581 38.7254 43.2351 38.8217 43.3122C40.0545 44.3138 42.0772 46.9914 43.2907 49.5533C43.5026 50.0156 43.6952 50.4587 43.8493 50.9017L44.5428 48.7058L45.0051 47.2803C45.0051 47.2803 41.5378 44.2753 40.3628 40.9236C40.1316 40.3072 40.0545 39.7871 40.0353 39.3633C40.016 37.3985 41.6726 36.8398 41.6726 35.0869C41.6726 32.9487 41.5763 32.1782 40.3628 31.6581C39.1299 31.138 38.8988 30.0786 39.0144 29.4814C39.0914 29.1154 40.0545 28.2679 40.5169 26.4572C40.5939 26.1682 40.6517 25.86 40.7095 25.5133C40.2472 24.4923 39.8427 23.7026 39.3996 23.3558C39.2455 23.221 39.0914 23.1439 38.9373 23.1247H38.8988C38.4172 23.0476 38.0512 22.9898 37.743 22.9706C36.6643 22.8743 36.3946 23.1439 35.5663 23.8181C35.0269 24.2612 34.7573 24.3575 34.4298 24.3768C34.3527 24.3768 34.295 24.3768 34.2179 24.3768C31.5596 24.5309 33.2355 26.0334 33.9675 26.4572C34.6032 26.8039 35.104 28.8458 33.5244 28.9035Z" fill="#FFDBBB"/>
<path d="M42.6937 44.8338C41.7883 43.7358 40.8637 42.3681 40.3629 40.9234C40.1317 40.307 40.0547 39.7869 40.0354 39.3631L40.4784 38.4771C40.4784 38.4771 40.6518 41.6747 43.1945 44.3907C43.0597 44.4871 42.9056 44.6219 42.7515 44.7567C42.7322 44.7953 42.7129 44.8145 42.6937 44.8338Z" fill="#595959"/>
<path d="M41.9809 47.184C40.9022 45.4889 39.6693 44.0056 38.8218 43.3122C38.7255 43.2351 38.6292 43.1581 38.5328 43.081L38.4365 42.5609L40.0353 39.3633C40.0546 39.7871 40.1317 40.3072 40.3628 40.9236C40.8636 42.3683 41.7883 43.736 42.6936 44.8339C42.6358 44.911 42.578 44.988 42.5395 45.0651C42.135 45.8549 41.9809 46.5676 41.9809 47.184Z" fill="#DB8951"/>
<path d="M48.6842 55.5055C48.7998 55.9293 49.0309 56.3338 49.3006 56.6998C49.6666 57.1428 50.1097 57.5088 50.572 57.817C51.4388 58.3757 52.4019 58.7031 53.3651 58.8765C54.3282 59.0499 55.3299 59.0499 56.3123 58.8187C56.7939 58.7031 57.2754 58.549 57.7763 58.3371C58.2771 58.106 58.7779 57.8941 59.3558 57.3547C59.6255 57.0851 59.9915 56.6228 60.0493 55.9678C60.0878 55.2936 59.7796 54.7928 59.5292 54.5231C59.3944 54.3497 59.3173 54.3112 59.2403 54.2342L58.9898 54.003C58.7972 53.8489 58.6431 53.6948 58.4697 53.5407C57.757 52.9628 56.9865 52.4427 56.1582 51.9997C55.3299 51.5566 54.4245 51.2099 53.4999 51.075C53.0183 51.0365 52.5368 51.0173 52.0937 51.075C51.6314 51.1328 51.1884 51.2484 50.7646 51.3833L50.8224 51.6915C51.6892 51.6529 52.5175 51.7492 53.2495 52.0575C53.577 52.1923 53.8852 52.3657 54.1934 52.539L54.2512 52.5775C54.6172 52.8087 54.9446 53.0591 55.2721 53.3288C55.8693 53.8489 56.4279 54.446 56.9672 55.0817C57.1021 55.2166 57.1984 55.3899 57.3332 55.5248C57.1984 55.5633 57.0635 55.6018 56.9287 55.6211C56.6012 55.6596 56.2352 55.6789 55.8693 55.6789C55.1373 55.6789 54.386 55.7174 53.6348 55.7367C52.8642 55.7752 52.113 55.7944 51.3425 55.7367C50.5527 55.6981 50.4949 55.6789 50.4371 55.6596L48.6842 55.5055Z" fill="#595959"/>
<path d="M40.4591 54.1571C43.0595 54.2342 44.7161 54.369 48.1257 54.7158C48.3183 54.735 48.5302 54.6965 48.7228 54.6194C49.6474 54.1957 52.1901 52.6161 49.8015 48.2242C49.6474 47.9545 46.2186 42.5994 43.387 44.2753C43.1751 44.3909 42.9632 44.545 42.7513 44.7569C42.6743 44.8532 42.5972 44.9495 42.5394 45.0651C40.4591 49.091 44.7547 50.6898 44.0612 52.5391C43.9649 52.8087 43.6567 52.8858 43.4255 52.7702C42.2312 52.2309 39.8234 53.2903 40.4591 54.1571Z" fill="#FFDBBB"/>
<path d="M48.6843 55.5056C48.4147 55.5826 49.0311 56.3339 49.3008 56.6999C49.3008 56.6999 50.418 57.1815 52.0939 56.5073C53.1341 56.0835 52.8836 56.3917 52.691 56.8347C52.4213 57.4126 53.9046 57.2585 54.7521 56.9696C55.0411 56.8733 55.1567 56.4109 55.7153 56.5073C56.2739 56.6036 57.1022 56.3146 57.526 56.3146C57.9305 56.3146 57.9305 56.045 57.7957 55.7175C57.6608 55.39 57.3912 55.024 57.3912 55.024C57.3912 55.024 57.1022 54.0416 56.3124 53.6178C55.619 53.2518 54.521 52.7125 54.2513 52.5776C54.6173 52.8088 54.9448 53.0592 55.2722 53.3289C55.8694 53.849 56.428 54.4461 56.9674 55.0818C57.3334 55.5249 56.2354 55.679 55.8694 55.679C55.1374 55.679 54.3861 55.7175 53.6349 55.7367C52.8644 55.7753 52.1131 55.7945 51.3426 55.7367C50.5528 55.6982 50.5528 55.6982 50.4373 55.6597L48.6843 55.5056Z" fill="#FFDBBB"/>
<path d="M45.217 44.5064C45.2941 44.7569 45.0822 45.1036 45.949 45.5274C46.8351 45.9704 47.1241 46.4713 47.2589 46.895C47.3937 47.2996 46.9314 47.0684 47.6827 47.7811C48.4147 48.5131 48.7421 48.8791 49.0311 49.3222C49.3008 49.7652 49.5319 51.5759 49.3393 51.8649C49.1659 52.1345 49.7631 53.56 48.7229 54.6194C49.6475 54.1957 52.1902 52.6161 49.8016 48.2242C49.6475 47.9545 46.2187 42.5994 43.3871 44.2753H43.3678C43.3678 44.2753 45.0629 44.0056 45.217 44.5064Z" fill="#595959"/>
<path d="M48.6843 54.2918C48.1064 50.3622 45.9683 48.4359 45.0051 45.8354C48.4532 49.0909 48.6843 54.2918 48.6843 54.2918Z" fill="#D37642"/>
<path d="M30.6157 24.916C30.558 24.7042 30.5387 24.5308 30.5387 24.3767C30.5387 24.1841 30.5965 24.03 30.7313 24.0107C30.8084 23.9914 30.8854 23.9722 30.9817 23.9722C31.0395 23.9722 31.0973 23.9914 31.1551 23.9914C31.1744 24.1648 31.1744 24.3767 31.0588 24.473C30.924 24.6271 30.7699 24.8197 30.6157 24.916Z" fill="#595959"/>
<path d="M34.1408 52.9437C34.9884 53.406 36.1249 53.329 37.088 53.329C37.4348 53.329 39.0914 51.3449 39.3033 50.2277C40.1701 45.9513 39.4574 43.3123 40.3627 40.9237C41.6726 37.4371 37.9163 35.2026 37.2999 37.2445C36.5679 39.7679 36.9147 45.2964 37.1843 48.5711C37.2807 49.8231 36.4909 50.9982 35.2773 51.2871C33.4473 51.7302 34.0638 52.9052 34.1408 52.9437Z" fill="#FFDBBB"/>
<path d="M35.4315 24.1838C35.6049 24.0489 35.8168 24.0489 35.8938 24.1645C35.9516 24.2801 35.9709 24.5497 35.7975 24.6653C35.6241 24.8002 35.2967 24.7039 35.2389 24.5883C35.1618 24.492 35.2389 24.2993 35.4315 24.1838Z" fill="#595959"/>
<path d="M35.6625 24.0874C35.6625 24.0874 35.8936 24.1644 35.9322 24.8579C36.1826 24.2415 35.9129 23.9911 35.6625 24.0874Z" fill="#FFDBBB"/>
<path d="M41.4413 27.1505C41.4028 27.0542 41.345 26.9579 41.3065 26.8616C41.0946 26.38 40.902 25.937 40.7094 25.5132C40.902 25.937 41.2294 26.669 41.4413 27.1505Z" fill="#F2D1B2"/>
<path d="M41.4414 27.1505C41.4222 27.1313 41.0177 26.5534 40.5939 26.1489C40.6324 25.9562 40.6709 25.7443 40.7094 25.5132C40.9021 25.937 41.0947 26.38 41.3066 26.8616C41.3451 26.9579 41.4029 27.0542 41.4414 27.1505Z" fill="#595959"/>
<path d="M40.594 26.1491C40.517 26.0913 40.4592 26.0335 40.3821 25.9757C40.4207 25.9179 40.4592 25.8601 40.4592 25.7831C40.4977 25.6097 40.517 25.3978 40.5555 25.1667C40.594 25.2822 40.6518 25.3978 40.7096 25.5134C40.6711 25.7446 40.6325 25.9564 40.594 26.1491ZM38.5329 23.9724C38.1284 23.4523 37.6661 23.0092 37.1652 22.9707C37.4927 22.99 38.4173 23.0478 38.8796 23.1248C38.687 23.3945 38.5907 23.6834 38.5329 23.9724Z" fill="#D9864F"/>
<path d="M40.3242 20.3505C40.4012 20.235 40.5746 20.2928 40.5746 20.4276C40.4975 21.044 40.4397 22.0264 40.6324 22.4309C40.8443 22.874 40.6131 24.7617 40.459 25.7827C40.4205 26.1101 40.0545 26.322 39.7463 26.1679C38.5712 25.6478 38.1475 24.2031 38.8794 23.1244C39.4766 22.2383 39.9582 21.3137 40.3242 20.3505Z" fill="#FFDBBB"/>
<path d="M40.3242 20.3505C40.4012 20.235 40.5746 20.2928 40.5746 20.4276C40.4975 21.044 40.4397 22.0264 40.6324 22.4309C40.8443 22.874 40.6131 24.7617 40.459 25.7827C40.4205 26.1101 40.0545 26.322 39.7463 26.1679C38.5712 25.6478 38.1475 24.2031 38.8794 23.1244C39.4766 22.2383 39.9582 21.3137 40.3242 20.3505Z" fill="#FFDBBB"/>
<path d="M39.5151 25.8408C39.4573 25.8408 39.4188 25.8216 39.361 25.783C38.7061 25.2244 38.5905 23.8375 39.1491 22.9129C39.6114 22.1423 39.9967 21.3333 40.3242 20.4472C40.3434 20.428 40.3627 20.4087 40.382 20.4087C40.4397 20.4087 40.4783 20.4665 40.459 20.5435C40.3434 21.1214 40.2086 22.0075 40.2856 22.3928C40.382 22.7973 40.0352 24.5309 39.8426 25.4556C39.7848 25.6867 39.65 25.8408 39.5151 25.8408Z" fill="#D37944"/>
<path d="M3.6092 51.2483L4.59161 45.5272C4.72645 44.6411 5.57402 44.044 6.44084 44.1981C7.32694 44.3522 7.92409 45.1805 7.76998 46.0666C7.75072 46.2014 7.71219 46.317 7.67367 46.4326L5.40065 51.7876C5.18876 52.2499 4.6494 52.4811 4.16783 52.2692C3.76331 52.0958 3.53215 51.672 3.6092 51.2483Z" fill="#F2AA8B"/>
<path d="M17.0547 45.797C16.9776 46.529 16.9198 47.2803 16.862 48.0123C16.8428 48.3783 16.8235 48.7443 16.8043 49.1103C16.8043 49.2836 16.785 49.4763 16.785 49.6304C16.785 49.8037 16.8043 49.9578 16.8043 50.0156L16.785 50.3238C16.7657 50.8247 16.3419 51.2099 15.8411 51.1906C15.4559 51.1714 15.1284 50.9017 15.0128 50.555C14.9165 50.2468 14.878 50.0156 14.8587 49.823C14.8202 49.6111 14.8009 49.3992 14.7624 49.2066C14.7239 48.8021 14.6853 48.4168 14.6468 48.0315C14.589 47.261 14.5505 46.4905 14.512 45.7007C14.4927 45.0073 15.0321 44.4101 15.7448 44.3716C16.4383 44.3523 17.0354 44.8917 17.0739 45.6044C17.0739 45.6622 17.0739 45.7393 17.0547 45.797Z" fill="#F2AA8B"/>
<path d="M18.3837 4.80557C18.3837 4.80557 20.5219 3.26454 18.6919 1.55014C18.3259 1.20341 18.1333 0.355847 17.5168 0.355847C16.0336 0.336584 15.4365 -0.337616 14.6659 0.221007C14.4155 0.394373 14.1458 0.548476 13.8376 0.664053C12.9515 0.972259 12.8167 1.29973 12.6433 1.87761C12.1425 3.59201 12.6433 3.958 12.9323 5.42198C13.3753 7.67573 13.7798 7.19416 13.7798 7.19416L18.3837 4.80557Z" fill="#595959"/>
<path d="M20.3871 14.2445C20.3871 14.2445 20.3678 14.4371 19.9633 14.5719C19.578 14.6875 19.6165 13.917 19.6165 13.917L20.2137 13.994L20.3871 14.2445Z" fill="#FFDBBB"/>
<path d="M17.4977 14.8801C17.5747 15.1305 17.7096 15.4195 17.8829 15.7277C18.4801 16.8642 19.4625 18.1933 19.4625 18.1933C19.5395 18.2511 21.3117 19.2913 22.1978 19.6188C23.6233 20.1581 24.413 20.0618 25.2991 20.293C25.7229 20.3893 25.877 19.5995 25.511 19.4069L25.3762 19.3298C25.2799 19.2721 25.1643 19.2143 25.068 19.1372C24.3938 18.7134 23.6618 18.1933 23.0646 17.8466C22.4097 17.4613 21.774 17.0183 21.1576 16.556C20.7146 15.9203 20.3678 15.1305 20.0789 14.283L19.9633 13.9555C19.8092 13.4547 19.1735 9.29389 18.3452 9.23611C17.5362 9.15905 16.8042 12.6842 17.4977 14.8801Z" fill="#F2AA8B"/>
<path d="M17.4978 14.8797C17.5748 15.1302 17.7096 15.4191 17.883 15.7273C17.9601 15.6888 19.1736 14.7064 19.8864 14.3211C20.1368 14.1863 20.3294 14.1285 20.3679 14.2248C20.3101 13.9359 19.1544 9.29351 18.3453 9.23573C17.9601 9.1972 17.5941 9.98698 17.3822 11.0464C17.1703 12.2022 17.1318 13.724 17.4978 14.8797Z" fill="#AF91CF"/>
<path d="M6.78756 25.2435C6.78756 25.2435 6.5564 25.9948 9.56141 25.9562C12.5857 25.8985 8.03964 24.3574 8.03964 24.3574L6.78756 25.2435Z" fill="#FFDBBB"/>
<path d="M12.6241 26.5917C12.6241 26.688 13.2598 32.1202 13.2598 32.1202L13.5488 34.7399C13.5873 35.1637 13.6451 35.626 13.6836 35.9727L13.7414 37.2826L14.223 47.7809V47.8001C14.2422 48.1469 14.7238 48.3395 15.3209 48.4165C16.2456 48.5321 17.4591 48.3202 17.4784 47.8194L18.0755 37.2056L18.1526 35.8957C18.1718 35.3756 18.1718 34.9518 18.1718 34.4895L18.1526 31.8312L18.1141 26.5532C18.0948 25.0314 16.862 23.8179 15.3402 23.8179C14.6467 23.8371 14.0111 24.1068 13.5295 24.5499C12.9709 25.0507 12.6241 25.7827 12.6241 26.5917Z" fill="#AF91CF"/>
<path d="M18.1141 27.3432V26.8809L18.1719 27.3239C18.1719 27.3239 18.1527 27.3239 18.1141 27.3432Z" fill="#AF91CF"/>
<path d="M15.321 48.4169C14.7238 48.3399 14.2422 48.1472 14.223 47.8005V47.7812L13.7414 37.283L13.6836 35.9731C13.6451 35.6264 13.5873 35.1641 13.5488 34.7403L13.2598 32.1205C13.2598 32.1205 13.0287 30.1557 12.8361 28.5569C12.9709 28.0946 13.0865 27.5745 13.2213 26.9966C13.2598 26.881 13.4139 26.1491 13.491 25.6675C15.3788 26.1491 17.1702 26.7077 18.1141 26.8618V26.881V27.3433C17.6903 27.4397 14.2037 28.2872 14.8394 31.2537C15.4943 34.3936 16.3612 35.3374 15.9181 36.7436C15.4943 38.1498 14.8394 40.9815 14.7431 42.0602C14.6468 42.8885 14.7046 46.6833 15.321 48.4169Z" fill="url(#paint0_linear_2002_11532)"/>
<path d="M3.6093 48.436C3.47446 49.3221 6.53726 49.9577 6.78768 49.2065C7.48114 47.1646 7.63524 47.1646 8.27092 45.1035C8.90659 43.0231 10.3898 37.3983 10.3898 37.3983L11.6997 32.6982C12.2391 30.7527 12.6243 29.5391 13.2215 26.9964C13.26 26.823 13.2985 26.6497 13.337 26.4763C13.9727 23.5676 12.817 23.6639 11.4108 23.3172C10.0238 22.9705 8.63691 23.7988 8.25165 25.1664C8.1746 25.4746 8.09755 25.7828 8.00124 26.091C7.53893 27.8632 7.09588 29.6354 6.6721 31.4269C6.6721 31.4269 5.57412 36.4545 5.51633 36.859L4.24498 44.1211C3.85972 46.24 3.95603 46.2978 3.6093 48.436Z" fill="#AF91CF"/>
<path d="M13.2214 26.9966C13.26 26.8233 13.2985 26.6499 13.337 26.4765C13.3948 26.1683 13.4526 25.8986 13.4719 25.6675C13.4911 25.6675 13.4911 25.6675 13.4911 25.6675C13.4141 26.1491 13.26 26.881 13.2214 26.9966Z" fill="url(#paint1_linear_2002_11532)"/>
<path d="M8.3479 24.9157C8.3479 24.8774 8.36708 24.839 8.36708 24.8198C8.36708 24.8198 8.36708 24.8198 8.38626 24.8198C8.36708 24.839 8.3479 24.8774 8.3479 24.9157Z" fill="#947650"/>
<path d="M7.42334 28.3642C7.48113 28.1138 8.07828 25.8793 8.34796 24.9161C8.34796 24.8776 8.36722 24.8391 8.38648 24.8198C8.42501 24.8198 8.4828 24.8198 8.54059 24.8198C9.4652 24.8198 10.5824 24.9932 11.7575 25.2436C12.3161 25.3784 12.9133 25.5133 13.4719 25.6674C13.4526 25.8985 13.3948 26.1682 13.337 26.4764C13.2985 26.6498 13.26 26.8232 13.2215 26.9965C13.2215 26.9965 12.4124 26.8232 11.3722 26.8232C10.0238 26.8232 8.29017 27.1121 7.42334 28.3642Z" fill="url(#paint2_linear_2002_11532)"/>
<path d="M18.7114 15.1113C18.9041 13.1465 19.0582 11.4707 18.8848 10.2764C18.9233 10.469 19.1352 11.6055 18.9618 14.2445C18.9426 14.3794 19.0967 14.4371 19.3086 14.4371C19.4627 14.4371 19.6746 14.3986 19.8865 14.3216C19.5397 14.4949 19.0967 14.8224 18.7114 15.1113Z" fill="url(#paint3_linear_2002_11532)"/>
<path d="M6.7876 25.2433C7.6159 24.5691 9.61924 24.781 11.7574 25.2433C15.1669 25.9945 18.9617 27.3622 18.8269 26.7458C17.4014 19.8689 19.4818 12.9728 18.8269 9.92932C18.249 7.27104 9.06062 6.96284 8.2901 9.37069C8.25158 10.0449 8.17452 10.9117 8.21305 11.9134C8.38642 15.5541 8.69462 21.0247 6.7876 25.2433Z" fill="#AF91CF"/>
<path d="M11.7574 25.2436C10.5824 24.9932 9.46514 24.8199 8.54052 24.8199C8.48273 24.8199 8.42494 24.8199 8.38642 24.8199C8.36715 24.8199 8.36715 24.8199 8.36715 24.8199C7.77 24.8391 7.26917 24.9354 6.92244 25.1473C6.88391 25.1858 6.82612 25.2051 6.7876 25.2436C8.05895 22.4505 8.34789 19.0988 8.34789 16.113C8.34789 14.572 8.27084 13.1466 8.21305 11.9137L10.0045 10.103C10.0045 10.103 10.1779 13.2429 9.31103 15.1499C8.50199 16.9221 9.96597 21.2755 10.7172 21.4489C11.4685 21.6415 14.7817 22.6431 15.0706 23.2403C15.3403 23.8182 12.0849 23.8374 11.873 25.051C11.8537 25.1088 11.8345 25.1666 11.7574 25.2436Z" fill="url(#paint4_linear_2002_11532)"/>
<path d="M5.84363 11.9522C5.84363 11.9522 5.95921 12.3759 6.92235 12.6649C7.88549 12.9538 8.46338 13.9362 8.88716 13.7821C9.09905 13.3969 7.75065 11.5669 7.75065 11.5669L5.84363 11.9522Z" fill="#FFDBBB"/>
<path d="M3.32019 17.6344C3.32019 18.4434 6.40225 21.2365 6.98013 22.1033C7.32687 22.6042 8.00107 22.7198 8.5019 22.3923C8.96421 22.0648 6.11331 17.3839 6.11331 17.3839C6.19036 17.2298 6.26741 17.0565 6.38299 16.8831C6.90308 16.0355 8.48264 13.8781 8.63674 13.7047C9.29168 12.8764 10.0044 12.1252 10.0044 9.4669C10.0044 6.40411 7.19203 10.3723 6.09404 12.0289C5.93994 12.26 5.82436 12.4526 5.74731 12.5682C5.1309 13.5121 3.32019 16.8061 3.32019 17.6344Z" fill="#F2AA8B"/>
<path d="M5.84363 11.952C6.42151 11.7016 8.92569 13.2233 8.88716 13.7819C9.46505 12.6647 10.0044 12.1253 10.0044 9.46707C10.0044 6.40427 6.94161 10.3146 5.84363 11.952Z" fill="#AF91CF"/>
<path d="M13.3755 9.62133C14.146 10.0451 16.2457 10.257 16.342 8.33072C16.3612 8.15735 15.5907 8.2344 15.61 8.0803L15.8411 6.11549L15.8797 5.80728C15.976 5.21013 15.5715 4.63225 14.9743 4.53593C14.8587 4.51667 14.7432 4.51667 14.6468 4.53593C14.3386 4.57446 14.069 4.72856 13.8956 4.97898L13.8185 5.09455L13.3177 6.71263L12.9902 7.73357C12.8939 7.73357 12.5087 7.73357 12.4316 7.75283C12.2197 8.48482 12.7013 9.25533 13.3755 9.62133Z" fill="#F2AA8B"/>
<path d="M13.2985 6.7706L13.8186 5.09473L13.3177 6.71281L13.2985 6.7706Z" fill="#B3B3B3"/>
<path d="M13.9534 4.90184C14.223 4.5551 14.4735 4.30469 14.4735 4.30469L14.6468 4.53584C14.3772 4.5551 14.1267 4.68994 13.9534 4.90184Z" fill="#B3B3B3"/>
<path d="M15.2824 8.7547C14.5697 8.7547 13.6258 7.73377 13.4524 7.23293C13.4332 7.19441 13.4139 7.17514 13.3946 7.17514C13.2983 7.17514 13.1635 7.5604 12.9901 7.73377L13.2983 6.77062L13.3176 6.71284L13.8184 5.09476L13.8955 4.97918C13.9147 4.94065 13.934 4.92139 13.9533 4.90213C14.1266 4.69024 14.377 4.5554 14.6467 4.53613L15.841 6.11569L15.6099 8.0805C15.6099 8.2346 16.3418 8.15755 16.3418 8.33092C16.3418 8.33092 15.9566 8.7547 15.2824 8.7547Z" fill="#F08D6B"/>
<path d="M18.6726 3.30285C18.1911 5.0365 18.3644 6.92426 17.2472 7.82962C16.6308 8.31119 15.841 8.69645 15.0898 8.44603C14.3385 8.19561 13.5487 7.00132 13.4331 6.21154C13.3176 5.42176 13.3368 4.3623 13.568 3.59179C14.5697 0.355628 19.0772 1.87739 18.6726 3.30285Z" fill="#F2AA8B"/>
<path d="M18.5378 3.82328C18.5378 3.82328 18.5378 2.53267 18.2681 2.95645C18.1718 3.11055 17.8636 3.11055 17.5554 3.0335C16.7271 2.78308 15.8795 2.91792 14.8393 2.47488C14.3578 2.32078 14.0881 4.3819 14.0881 4.3819L13.4332 6.34671L12.9901 2.45562C12.9901 2.45562 14.8008 0.336702 16.5345 0.818273C18.2489 1.29984 19.1928 2.66751 18.5378 3.82328Z" fill="#595959"/>
<path d="M13.3948 5.17173C13.626 5.63404 14.069 5.88445 14.3772 5.73035C14.7047 5.55698 14.1268 5.2873 14.3387 4.69016C14.5314 4.18932 14.0883 3.76554 13.5489 4.05448C13.2022 4.24711 13.1637 4.70942 13.3948 5.17173Z" fill="#F2AA8B"/>
<path d="M8.23219 22.4888C8.23219 22.4888 7.8662 23.3749 7.42315 23.6639C7.21126 24.2225 7.21126 24.2225 7.21126 24.2225C7.21126 24.2225 6.826 23.7987 6.78748 23.0089C6.74895 22.2192 6.99937 21.9688 6.99937 21.9688L8.23219 22.4888Z" fill="#F2AA8B"/>
<path d="M8.46341 22.2189C8.50194 22.4115 8.54047 22.6427 8.61752 22.8353C8.67531 23.0279 8.75236 23.2398 8.84867 23.3554L8.86793 23.3746C8.94499 23.471 8.94499 23.6058 8.84867 23.7021C8.75236 23.7792 8.61752 23.7792 8.54047 23.6829C8.30931 23.471 8.213 23.2591 8.09742 23.0279C8.00111 22.816 7.92405 22.6041 7.847 22.3537C7.80848 22.1996 7.88553 22.0262 8.05889 21.9685C8.23226 21.9107 8.40563 22.007 8.44415 22.1804L8.46341 22.2189Z" fill="#F2AA8B"/>
<path d="M25.1258 18.7328L25.0873 19.5033C25.0487 20.293 25.3569 20.6013 26.3971 20.1004C26.5512 20.0234 27.1291 19.1951 27.1291 19.1951C27.4566 18.6364 27.4373 18.5209 26.8787 18.2319C26.6861 18.1356 26.4164 18.3475 26.1274 18.5594C25.7615 18.8291 25.3762 19.0987 25.1258 18.7328Z" fill="#F2AA8B"/>
<path d="M26.6668 18.8678L27.1484 18.2899L27.3025 18.1358L27.4566 18.0202L27.7455 17.8083C27.8226 17.7313 27.9382 17.7505 27.9959 17.8276C28.073 17.9239 28.0537 18.0202 27.9767 18.0973L27.6877 18.3284C27.5914 18.4055 27.5336 18.4633 27.4951 18.5596L27.1291 19.176C27.0521 19.3108 26.8787 19.3686 26.7439 19.2916C26.609 19.2145 26.5705 19.0412 26.6475 18.9063L26.6668 18.8678Z" fill="#F2AA8B"/>
<path d="M26.4164 18.7324L26.898 17.5959L27.0328 17.384L27.1484 17.2491L27.3988 17.018L27.8804 16.6135C27.9767 16.5364 28.1308 16.5557 28.2078 16.652C28.2849 16.729 28.2849 16.8639 28.1886 16.9602L27.7841 17.4225L27.5914 17.6344L27.5144 17.75C27.4951 17.7692 27.4951 17.7692 27.4951 17.7692C27.4951 17.7692 27.5144 17.7692 27.4951 17.8078L27.1291 19.0021C27.0713 19.1947 26.8594 19.3103 26.6475 19.2525C26.4549 19.1947 26.3393 18.9828 26.3971 18.7709L26.4164 18.7324Z" fill="#F2AA8B"/>
<path d="M25.9732 18.4823L26.2044 17.7888L26.32 17.4614L26.397 17.2687L26.4741 17.1339L26.5319 17.0568L27.4372 15.9396C27.5143 15.8433 27.6684 15.824 27.7647 15.9011C27.861 15.9974 27.8803 16.1322 27.8225 16.2285L27.0134 17.4036L26.9556 17.4614V17.4806L26.9171 17.6347L26.8208 17.9814L26.6474 18.6556V18.6749C26.6089 18.8483 26.4163 18.9639 26.2237 18.9253C26.0503 18.8675 25.9347 18.6942 25.9732 18.5015V18.4823Z" fill="#F2AA8B"/>
<path d="M25.4534 18.5207C25.5112 18.2895 25.5497 18.0776 25.6268 17.8465C25.6846 17.6153 25.7423 17.4227 25.8964 17.153L26.5321 16.0165V15.9972C26.5899 15.9202 26.7055 15.8817 26.7825 15.9394C26.8596 15.978 26.8981 16.0743 26.8596 16.1706L26.3588 17.4227C26.301 17.5575 26.2432 17.7887 26.2046 18.0006C26.1661 18.1932 26.1276 18.4244 26.0891 18.6362C26.0698 18.8096 25.8964 18.9252 25.7231 18.9059C25.5497 18.8867 25.4149 18.7133 25.4534 18.5399V18.5207Z" fill="#F2AA8B"/>
<path d="M25.145 18.7521L25.1064 18.964V18.9447V18.8484L25.0679 18.6173L24.9716 18.155L24.9331 17.9045C24.9138 17.8468 24.9138 17.8468 24.9138 17.7119C24.9138 17.5193 24.9331 17.5963 24.9331 17.5578L24.9523 17.5193C25.0101 17.423 25.0487 17.2689 25.0487 17.1533V17.1148C25.0679 17.0185 25.145 16.9414 25.2605 16.9414C25.3376 16.9607 25.3954 16.9992 25.4147 17.057C25.4917 17.2496 25.5302 17.4422 25.511 17.6349V17.7119C25.511 17.7119 25.511 17.8468 25.5302 17.6927L25.5495 17.7312L25.6458 17.9431L25.8384 18.3861L25.9348 18.598L25.9925 18.7329L26.0118 18.8292L26.0311 18.887C26.0311 18.9255 26.0311 19.0988 25.9733 19.1759C25.8577 19.3878 25.588 19.4841 25.3569 19.3685C25.1257 19.2529 25.0294 18.9833 25.145 18.7521Z" fill="#F2AA8B"/>
<path d="M26.166 19.9656C26.0119 19.9656 25.8578 19.8692 25.7808 19.5418C25.7615 19.5225 25.7423 19.4647 25.7037 19.4069C25.8193 19.3684 25.9156 19.2914 25.9734 19.1758C26.0312 19.0987 26.0312 18.9254 26.0312 18.8868L26.0119 18.8291V18.8098L26.0312 18.7905C26.0697 18.8483 26.1468 18.9061 26.2238 18.9254C26.2624 18.9254 26.2816 18.9254 26.3201 18.9254C26.3394 18.9254 26.3587 18.9254 26.3779 18.9254C26.3972 19.0795 26.4935 19.2143 26.6476 19.2528C26.6669 19.2528 26.7054 19.2721 26.7247 19.2721C26.7247 19.2721 26.7439 19.2721 26.7439 19.2914C26.7632 19.2914 26.7632 19.2914 26.7825 19.2914C26.6861 19.484 26.5513 19.7344 26.4935 19.8115C26.4357 19.8885 26.3009 19.9656 26.166 19.9656Z" fill="#F19979"/>
<path d="M26.7823 19.2912C26.763 19.2912 26.763 19.2912 26.7438 19.2912C26.7438 19.272 26.7245 19.272 26.7245 19.272C26.7245 19.272 26.7438 19.272 26.763 19.272H26.7823V19.2912Z" fill="#F19979"/>
<path d="M26.7632 19.2719C26.7439 19.2719 26.7247 19.2719 26.7247 19.2719C26.7054 19.2719 26.6669 19.2526 26.6476 19.2526C26.4935 19.2141 26.3972 19.0792 26.3779 18.9251C26.5128 18.9059 26.6091 18.8096 26.6476 18.6747V18.6554L26.7632 18.2124C26.8017 18.2124 26.8402 18.2317 26.8788 18.2317C27.1484 18.3087 26.898 19.0214 26.898 19.0214C26.898 19.0214 26.8595 19.137 26.7824 19.2719H26.7632Z" fill="#F19979"/>
<path d="M26.3201 18.9253C26.2815 18.9253 26.2623 18.9253 26.2238 18.9253C26.1467 18.9061 26.0697 18.8483 26.0311 18.7905C26.0697 18.752 26.0889 18.6942 26.0889 18.6364C26.1082 18.5979 26.1082 18.5594 26.1082 18.5208C26.2238 18.4245 26.2045 18.1934 26.5512 18.1934C26.609 18.1934 26.6861 18.1934 26.7631 18.2126L26.6475 18.6557V18.6749C26.609 18.8098 26.5127 18.9061 26.3779 18.9253C26.3586 18.9253 26.3393 18.9253 26.3201 18.9253Z" fill="#F19979"/>
<path d="M26.0119 18.8099L25.9926 18.7329L25.9348 18.598C25.9541 18.5788 25.9926 18.5788 26.0311 18.5788C26.0504 18.5595 26.0889 18.5403 26.1082 18.521C26.1082 18.5595 26.1082 18.598 26.0889 18.6366C26.0889 18.6944 26.0697 18.7522 26.0311 18.7907L26.0119 18.8099Z" fill="#F19979"/>
<path d="M25.7038 19.4067C25.5497 19.1755 25.3185 18.7325 25.9349 18.5977L25.9927 18.7325L26.012 18.8095V18.8288L26.0312 18.8866C26.0312 18.9251 26.0312 19.0985 25.9734 19.1755C25.9157 19.2911 25.8193 19.3682 25.7038 19.4067Z" fill="#F19979"/>
<path d="M14.3579 50.921V50.9402C14.3386 51.4025 14.4157 51.7685 14.7239 51.9226C14.9165 52.0382 16.0145 51.9997 16.4383 52.1345C17.7674 52.9436 18.5764 53.0014 19.1351 53.0014C20.3679 52.9436 20.6568 52.9436 20.7724 52.4042C20.7724 52.3272 20.7531 52.2308 20.7339 52.1345C20.7146 51.73 20.2138 51.4025 19.1736 50.9402C17.8637 50.3623 17.8444 49.7074 17.0161 48.9754C17.2088 48.5131 16.7272 48.7443 16.1493 48.9562C15.5329 49.1873 14.8202 49.4185 14.7046 48.8021C14.589 49.5533 14.3964 50.3238 14.3579 50.921Z" fill="#595959"/>
<path d="M0.950901 53.6178C0.950901 53.7719 0.950901 53.9838 1.105 54.0801C1.37468 54.2342 2.31856 54.292 2.60751 54.292C3.1276 54.292 4.05222 54.0608 4.45674 53.6178C4.63011 53.4059 4.82274 53.2133 5.05389 53.0977L5.68957 52.7702C6.07482 52.7317 6.20966 52.3464 6.22893 51.8456C6.26745 51.1907 6.15187 50.3624 6.28671 49.9001C5.57399 50.3046 4.97684 50.0927 4.51453 49.8808C3.95591 49.6304 3.58991 49.38 3.45507 50.1312L2.80014 51.2677C2.53046 51.7493 2.12594 52.1731 1.66363 52.5005C1.18206 52.828 0.912376 53.2133 0.950901 53.6178Z" fill="#595959"/>
<path d="M17.4399 52.6548C17.1317 52.52 16.785 52.3466 16.4383 52.1347C16.8043 52.3659 17.151 52.52 17.4399 52.6548ZM16.3997 52.1155C15.9952 52.0191 15.1476 52.0384 14.8009 51.9614C15.1284 52.0384 15.9952 52.0191 16.3997 52.1155Z" fill="#595959"/>
<path d="M19.0965 53.0016C18.7113 53.0016 18.1141 52.9245 17.4399 52.6548C17.151 52.52 16.8043 52.3659 16.4383 52.1347C16.419 52.1347 16.419 52.1155 16.3997 52.1155C15.9952 52.0191 15.1284 52.0384 14.8009 51.9614C14.7624 51.9421 14.7431 51.9421 14.7239 51.9228C14.4157 51.7687 14.3386 51.4027 14.3579 50.9404C14.3964 51.056 14.6275 51.6724 15.6677 51.6724C15.8411 51.6724 16.053 51.6532 16.2842 51.6146H16.4383C17.8444 51.9421 17.7674 52.6163 18.7691 52.6163C18.8076 52.6163 18.8269 52.6163 18.8461 52.6163C19.8285 52.5778 19.8093 51.8843 20.156 51.8843C20.1945 51.8843 20.2523 51.9036 20.3101 51.9228C20.5412 52.1347 20.6376 52.3081 20.7724 52.4044C20.6568 52.9438 20.3679 52.9438 19.1351 53.0016C19.1158 53.0016 19.0965 53.0016 19.0965 53.0016Z" fill="#595959"/>
<path d="M4.45677 53.6174C4.63013 53.4055 4.82276 53.2129 5.05392 53.0973C4.82276 53.2321 4.63013 53.4055 4.45677 53.6174Z" fill="#595959"/>
<path d="M2.60753 54.2916C2.31859 54.2916 1.37471 54.2338 1.10503 54.0797C0.950928 53.9834 0.950928 53.7715 0.950928 53.6174C0.950928 53.6174 0.950928 53.6174 0.970191 53.6174C1.00872 53.6174 1.0665 53.5403 1.10503 53.4826C1.16282 53.367 1.2784 53.2707 1.39397 53.2707C1.45176 53.2707 1.52881 53.3092 1.5866 53.3862C1.87555 53.7715 2.31859 53.8678 2.83869 53.8678C2.935 53.8678 3.05058 53.8678 3.14689 53.8486C3.74404 53.8293 4.14856 53.5018 4.61087 52.9047C4.72645 52.7698 4.86129 52.6735 5.03465 52.6157C5.6318 52.4616 6.09411 52.2883 6.22895 51.8452C6.20969 52.346 6.07485 52.7313 5.68959 52.7698L5.05392 53.0973C4.82276 53.2129 4.63013 53.4055 4.45677 53.6174C4.43751 53.6367 4.41824 53.6559 4.37972 53.6752C4.37972 53.6944 4.37972 53.6944 4.37972 53.6944C4.36045 53.6944 4.36045 53.6944 4.36045 53.6944V53.7137C3.93667 54.0797 3.12763 54.2916 2.64606 54.2916C2.6268 54.2916 2.6268 54.2916 2.6268 54.2916H2.60753Z" fill="#595959"/>
<defs>
<linearGradient id="paint0_linear_2002_11532" x1="15.4751" y1="25.6675" x2="15.4751" y2="48.4169" gradientUnits="userSpaceOnUse">
<stop stop-color="#9D6DD1"/>
<stop offset="1" stop-color="#6D3F9E"/>
</linearGradient>
<linearGradient id="paint1_linear_2002_11532" x1="13.3563" y1="25.6675" x2="13.3563" y2="26.9966" gradientUnits="userSpaceOnUse">
<stop stop-color="#9D6DD1"/>
<stop offset="1" stop-color="#6D3F9E"/>
</linearGradient>
<linearGradient id="paint2_linear_2002_11532" x1="10.4476" y1="24.8198" x2="10.4476" y2="28.3642" gradientUnits="userSpaceOnUse">
<stop stop-color="#9D6DD1"/>
<stop offset="1" stop-color="#6D3F9E"/>
</linearGradient>
<linearGradient id="paint3_linear_2002_11532" x1="19.2989" y1="10.2764" x2="19.2989" y2="15.1113" gradientUnits="userSpaceOnUse">
<stop stop-color="#9D6DD1"/>
<stop offset="1" stop-color="#6D3F9E"/>
</linearGradient>
<linearGradient id="paint4_linear_2002_11532" x1="10.937" y1="10.103" x2="10.937" y2="25.2436" gradientUnits="userSpaceOnUse">
<stop stop-color="#9D6DD1"/>
<stop offset="1" stop-color="#6D3F9E"/>
</linearGradient>
</defs>
</svg>
