<svg width="85" height="59" viewBox="0 0 85 59" fill="none" xmlns="http://www.w3.org/2000/svg">
<path d="M13.7992 43.1209C13.7992 43.1469 13.6085 43.2769 13.3572 43.4416C12.8371 43.7709 12.0484 44.2303 12.0484 44.2303C11.563 44.5337 11.0776 44.8197 10.6356 45.1057C9.76014 45.6951 8.98006 46.3452 8.7547 46.8739C8.61602 47.5153 9.70813 48.122 10.2975 48.7374C10.6009 49.0928 10.8002 49.2402 11.4503 50.0116C11.6583 50.3236 11.9097 50.6616 12.135 51.069L12.2477 51.277L12.3431 51.4764C12.4297 51.6844 12.5251 51.9098 12.5858 52.1524C12.6291 52.2738 12.6551 52.3951 12.6898 52.5252L12.7158 52.6812C12.7591 52.8719 12.7938 53.0625 12.8198 53.2792C12.9065 54.12 12.7678 55.2034 12.2997 56.0788C11.823 56.9456 11.1989 57.535 10.6529 57.9077C10.1155 58.2891 9.60412 58.4884 9.15341 58.6444C8.70269 58.7918 8.27798 58.8785 7.88794 58.9305H7.83594C6.29312 59.1125 5.01899 58.8871 3.78819 58.4798C2.54874 58.029 1.37862 57.4483 0.295173 56.4429L0.19983 56.3562L0.191162 56.1048L0.329843 56.0442C1.43929 56.0702 2.5574 56.0182 3.66685 55.9662C4.76763 55.8882 5.87707 55.7581 6.90851 55.4635C7.91395 55.1774 8.98006 54.5794 8.81537 53.7039C8.76337 53.2619 8.51201 52.8025 8.20864 52.3691L7.17721 51.0517C6.50114 50.1242 5.89441 49.0928 5.66905 47.888C5.58238 47.2813 5.60838 46.6312 5.86841 46.0505C6.10243 45.4698 6.53581 44.9844 7.00385 44.6203C7.21188 44.473 7.4199 44.3343 7.63659 44.2216C8.434 43.7536 9.32676 43.4762 10.2108 43.3029C11.2076 43.0949 12.1957 42.9735 13.2012 42.9475C13.3398 42.9302 13.4612 42.9302 13.5999 42.9302C13.7125 42.9302 13.7992 43.0255 13.7992 43.1209Z" fill="#B3B3B3"/>
<path d="M12.1351 51.0691C11.2337 49.5349 9.93352 48.7982 9.13611 47.9748C8.14801 46.9433 8.65072 46.8566 8.75473 46.4233C8.86741 45.9899 7.88798 45.4005 7.64529 44.8718C7.53261 44.6204 7.54995 44.3604 7.63662 44.2217C7.85331 44.0917 8.07867 43.979 8.31269 43.875C8.48604 44.5857 8.80674 45.3398 9.31813 46.1372C9.04943 46.3886 8.85008 46.6399 8.75473 46.874C8.74607 46.9086 8.7374 46.9433 8.7374 46.9866C8.7374 47.5934 9.74284 48.1568 10.2976 48.7375C10.6009 49.0929 10.8003 49.2402 11.4503 50.0116C11.6584 50.3237 11.9097 50.6617 12.1351 51.0691Z" fill="#595959"/>
<path d="M6.8305 58.9999C6.60515 58.9999 6.37979 58.9913 6.1631 58.9739C6.36246 58.9826 6.56181 58.9913 6.76116 58.9913C7.10787 58.9913 7.46324 58.9739 7.83594 58.9306H7.87061C7.51524 58.9826 7.16854 58.9999 6.8305 58.9999Z" fill="#EAB8B8"/>
<path d="M6.76116 58.9914C6.56181 58.9914 6.36246 58.9827 6.1631 58.9741C5.13166 58.8874 4.27358 58.636 3.82286 58.4887C3.8142 58.4887 3.8142 58.4887 3.80553 58.4887C3.80553 58.48 3.80553 58.48 3.80553 58.48C3.79686 58.48 3.78819 58.48 3.78819 58.48C2.54874 58.0293 1.37862 57.4486 0.295173 56.4431L0.19983 56.3565L0.191162 56.1051C0.893234 56.8592 3.65818 58.0293 6.64849 58.0293C8.60735 58.0293 10.6616 57.5266 12.2997 56.0791C11.0343 57.9686 9.3961 58.714 7.87061 58.9307H7.83594C7.46323 58.9741 7.10787 58.9914 6.76116 58.9914Z" fill="#595959"/>
<path d="M27.9707 50.9653C27.4073 50.2026 23.4375 48.3304 22.9435 47.9057C23.0475 47.6716 24.2523 46.5535 24.2436 46.4235C24.0529 44.1006 22.7875 44.2219 22.4928 44.0313C21.9034 43.7019 21.4873 43.5632 21.0713 43.4245C20.2739 43.1558 19.5718 42.9825 18.8697 42.8351C17.4569 42.5318 14.0766 42.1244 13.7732 42.1677C11.9184 42.4538 10.6442 44.1959 10.9303 46.0508C11.2163 47.9057 13.0105 47.637 14.8653 47.3509C15.9921 47.1776 19.5458 47.9057 19.3031 48.6944C18.9997 49.6912 20.5946 49.5352 20.8719 49.6825C22.4408 49.9859 25.1277 51.1213 25.3444 51.2513C25.4484 51.3207 27.3033 52.7335 27.806 52.5081C28.3174 52.2741 28.3 51.4247 27.9707 50.9653Z" fill="#B3B3B3"/>
<path d="M27.6759 52.534C27.0345 52.534 25.4396 51.3118 25.3443 51.2512C25.1276 51.1211 22.4407 49.9857 20.8718 49.6823C20.6118 49.5437 19.2597 49.665 19.2597 48.9283C19.2597 48.8589 19.277 48.7809 19.303 48.6942C19.3117 48.6682 19.3117 48.6422 19.3117 48.6162C19.3117 48.4255 19.095 48.2349 18.7483 48.0615C20.8545 47.5848 22.848 46.9001 24.2262 46.458C24.1048 46.692 23.0387 47.6888 22.9434 47.9055C23.4374 48.3302 27.4072 50.2024 27.9706 50.9651C28.1179 51.1732 28.2046 51.4679 28.2046 51.7539C28.2046 52.0746 28.0832 52.3779 27.8059 52.508C27.7712 52.5253 27.7279 52.534 27.6759 52.534Z" fill="#595959"/>
<path d="M46.9091 32.3818L42.6533 31.1597C42.5926 31.0123 42.5406 30.8737 42.5146 30.761C42.2806 29.8942 42.6967 29.6515 42.9654 28.6808C43.026 28.4641 43.104 28.2561 43.234 28.074C43.6848 27.424 44.2915 26.9646 44.8289 26.7826L44.8462 26.7739C45.3316 26.6092 45.7563 26.6699 45.973 27.0079C46.4497 27.788 46.5711 28.7414 46.6144 29.6515C46.6577 30.5616 46.6491 31.5064 46.9091 32.3818Z" fill="#B3B3B3"/>
<path d="M46.528 31.9399C46.5193 31.9399 46.5193 31.9312 46.5106 31.9312C46.4933 31.9226 46.4846 31.9139 46.476 31.8966C46.4846 31.9052 46.4933 31.9139 46.5106 31.9226C46.5193 31.9312 46.528 31.9399 46.528 31.9399ZM45.6525 31.3332C44.6471 30.7091 43.6763 30.4144 42.4542 30.4058C42.4456 30.3711 42.4456 30.3277 42.4456 30.2931C42.4456 29.7644 42.7576 29.4523 42.9656 28.6809C43.0263 28.4642 43.1043 28.2562 43.2343 28.0742C43.685 27.4241 44.2917 26.9647 44.8291 26.7827C44.6991 26.9214 44.0837 27.8575 43.971 28.7416C43.8497 29.773 44.8465 30.7264 45.6525 31.3332Z" fill="#595959"/>
<path d="M53.9559 38.0245C53.9039 38.4839 52.6038 38.8392 52.1791 38.9086C51.893 38.8566 51.555 38.8219 51.1823 38.8046C50.1162 38.7092 48.7207 38.6919 47.2732 38.7266C43.6762 38.7699 39.7498 39.0559 39.6458 39.0126C39.4985 38.9606 36.1614 36.655 35.052 35.7796C35.052 35.7796 39.9925 30.8564 40.2179 31.2291C40.8246 32.2779 42.0901 34.4881 42.0901 34.5141C42.0901 34.5228 42.3501 34.7395 42.5668 34.8348C43.0088 35.0342 43.6069 35.1122 44.1443 35.3635C44.6643 35.6062 45.193 35.8143 45.7131 35.9703C47.0999 36.4123 48.4607 36.5943 49.5268 36.655H49.5355C50.8009 36.7157 51.6417 36.629 51.6417 36.629C52.2051 36.6897 54.0079 37.4698 53.9559 38.0245Z" fill="#B3B3B3"/>
<path d="M42.6362 41.0409C42.4281 41.1449 42.2114 41.2316 41.9774 41.327C41.1627 41.639 40.3046 41.7343 39.4118 41.7517C38.7964 41.7517 38.155 41.717 37.4876 41.6823C34.168 41.509 30.1809 41.3356 24.911 46.2415C21.6347 47.2209 12.6031 50.8699 9.54345 46.4755C6.41446 41.9597 9.20541 38.9867 12.0397 36.0138C15.4981 32.3821 22.5448 28.9757 28.1787 29.2444C29.5482 29.3137 30.8656 29.3137 32.1397 29.3051C36.3175 29.2964 40.0619 29.2791 43.6156 31.7407C43.6936 31.8793 43.7629 32.018 43.8323 32.1567C45.8431 35.9964 46.4932 39.2294 42.6362 41.0409Z" fill="#B3B3B3"/>
<path d="M51.1822 38.8045C51.0955 38.7958 51.0001 38.7871 50.8961 38.7785C50.8528 38.7178 50.8008 38.6571 50.7401 38.5878C50.2287 37.9724 49.3793 37.1576 48.8159 36.5942C49.0586 36.6202 49.3013 36.6376 49.5267 36.6549H49.5353C49.674 36.7329 50.8615 37.3917 51.1822 38.8045Z" fill="#595959"/>
<path d="M42.3068 41.2228C42.2808 41.2228 42.2634 41.2228 42.2461 41.2228C42.3761 41.1621 42.5061 41.1015 42.6361 41.0408C42.9655 40.8848 43.2689 40.7114 43.5376 40.5381C43.5549 40.5468 43.5636 40.5554 43.5809 40.5641C43.2689 40.7808 42.9135 40.9888 42.5061 41.1795C42.4454 41.2055 42.3761 41.2228 42.3068 41.2228Z" fill="#E5A2A2"/>
<path d="M42.2461 41.2229C41.622 41.1622 40.6859 40.2261 40.5386 39.9834C39.8625 38.8826 38.4584 39.0646 37.1496 37.5998C36.4995 36.7764 36.2655 35.9443 36.2915 35.1556C36.4735 35.3896 36.7335 35.5976 37.1322 35.7276C37.2276 35.7536 37.3316 35.7883 37.4356 35.8056C37.5309 36.3777 37.765 36.9671 38.2417 37.4351C40.1052 39.2293 40.4779 38.3366 43.5376 40.5381C43.2689 40.7115 42.9655 40.8848 42.6361 41.0408C42.5061 41.1015 42.3761 41.1622 42.2461 41.2229ZM39.2991 31.1338C39.2991 31.1338 39.2905 31.1338 39.2905 31.1252C39.2818 31.1252 39.2731 31.1252 39.2731 31.1252C39.2731 31.1165 39.2645 31.1165 39.2645 31.1165C39.2645 31.1165 39.2558 31.1165 39.2471 31.1165C39.2471 31.1078 39.2471 31.1078 39.2471 31.1078C39.2384 31.1078 39.2298 31.1078 39.2211 31.0992H39.2124C39.2038 31.0992 39.2038 31.0992 39.2038 31.0992C39.1951 31.0905 39.1951 31.0905 39.1864 31.0905C39.1778 31.0818 39.1691 31.0818 39.1604 31.0818C39.0304 31.0298 38.8917 30.9865 38.7617 30.9431C38.7791 30.9258 38.8051 30.9085 38.8224 30.8998C39.3858 30.5184 40.1659 30.4404 40.6946 30.4404C41.024 30.4404 41.2667 30.4751 41.2927 30.4751C40.9633 30.5098 40.6079 30.5618 40.2265 30.6311C39.9319 30.6831 39.6112 30.8738 39.2991 31.1338Z" fill="#595959"/>
<path d="M51.1824 39.3074C51.1824 39.7841 50.931 40.2781 50.489 40.6942C49.1889 41.9336 46.3286 42.6097 43.919 40.8155C40.504 38.2586 40.1746 39.2987 38.2417 37.4352C36.7769 36.0137 37.635 33.5088 37.635 33.5088C37.6957 32.8674 39.1345 30.8305 40.2266 30.6311C43.1129 30.1111 44.6124 30.4751 46.5106 31.9313C47.1867 32.4513 47.3427 33.2054 47.516 34.0028C47.568 34.2715 47.6287 34.5662 47.7154 34.8522C47.8281 35.2509 47.9927 35.6496 48.2701 36.0137C48.5128 36.3604 49.9863 37.6779 50.7403 38.5879C51.009 38.9 51.1824 39.1687 51.1824 39.3074Z" fill="#B3B3B3"/>
<path d="M24.9111 46.2414C29.2015 42.2456 32.6512 41.6216 35.5721 41.6216C36.2309 41.6216 36.8723 41.6476 37.4877 41.6823C38.0944 41.7169 38.6925 41.7516 39.2558 41.7516C39.3079 41.7516 39.3599 41.7516 39.4119 41.7516C39.6199 41.7429 39.8279 41.7343 40.0273 41.7256C39.8279 41.7429 39.6199 41.7516 39.4119 41.7516C39.3599 41.7516 39.3079 41.7516 39.2558 41.7516C38.6925 41.7516 38.0944 41.7169 37.4877 41.6823C36.8723 41.6476 36.2309 41.6216 35.5721 41.6216C32.6512 41.6216 29.2015 42.2456 24.9111 46.2414Z" fill="#EAB8B8"/>
<path d="M14.6053 48.5991C12.5078 48.5991 10.6442 48.053 9.54346 46.4755C10.3582 46.9869 10.8436 47.4203 12.5251 47.4203C13.2012 47.4203 14.0679 47.351 15.2207 47.1863C17.3876 46.8742 17.9856 39.5762 20.5686 39.5762C20.7073 39.5762 20.8546 39.5935 21.0106 39.6368C23.3162 40.3302 25.3531 40.885 27.52 40.885C28.2134 40.885 28.9241 40.8243 29.6608 40.6943C30.5969 40.5296 31.559 40.4689 32.5125 40.4689C36.6035 40.4689 40.4433 41.6824 40.4433 41.6824C40.3046 41.6997 40.1659 41.7171 40.0272 41.7257C39.8279 41.7344 39.6199 41.7431 39.4118 41.7517C39.3598 41.7517 39.3078 41.7517 39.2558 41.7517C38.6924 41.7517 38.0944 41.7171 37.4876 41.6824C36.8722 41.6477 36.2308 41.6217 35.5721 41.6217C32.6511 41.6217 29.2015 42.2458 24.911 46.2415C24.703 46.3022 24.4776 46.3802 24.2263 46.4582C22.8481 46.9003 20.8546 47.585 18.7484 48.0617C17.3703 48.3737 15.9401 48.5991 14.6053 48.5991Z" fill="#595959"/>
<path d="M45.9645 43.9705C45.9645 43.9705 42.5842 43.4417 40.7207 42.8263C39.5072 42.419 37.791 41.5175 36.6729 41.0062C36.7683 40.7201 36.8549 40.4341 36.9156 40.1394C37.1323 39.2553 31.1344 30.4924 29.6089 32.0352C28.0834 33.5867 29.9469 37.6518 30.0336 37.6952C30.1983 37.7905 31.143 38.5532 31.3944 38.8653C31.6544 39.1773 32.5558 40.7115 32.3131 42.4103C32.1225 43.6931 32.6945 43.4764 33.2579 43.6931C35.3728 44.4992 37.739 44.5685 39.8019 44.9152C41.8648 45.2533 43.1476 45.1232 45.0718 45.9207C46.2506 46.4147 47.2127 46.4754 47.3253 45.9813C47.4467 45.4266 46.8746 44.0745 45.9645 43.9705Z" fill="#B3B3B3"/>
<path d="M38.2417 36.0136C35.9101 35.5282 36.2048 34.2627 35.3987 33.942C34.1766 33.4567 32.7898 31.5585 32.7898 31.2724C32.7898 30.579 33.9512 30.5704 34.6447 30.5357C37.0889 30.397 39.8018 30.7524 41.414 32.5986L38.2417 36.0136Z" fill="#B3B3B3"/>
<path d="M37.2536 35.7622C35.8928 35.3981 36.0661 34.202 35.3987 33.942C34.1766 33.4566 32.7898 31.5584 32.7898 31.2724C32.7898 30.579 33.9512 30.5703 34.6447 30.5356C36.7595 30.4143 39.0738 30.6657 40.7033 31.9225C41.1193 32.2432 41.1886 32.7285 40.7986 33.2659C40.2959 34.1587 38.9351 36.2129 37.2536 35.7622Z" fill="#B3B3B3"/>
<path d="M37.4357 35.8055C37.3317 35.7882 37.2277 35.7535 37.1323 35.7275C37.1757 35.7362 37.219 35.7535 37.2537 35.7622C37.3143 35.7795 37.375 35.7969 37.4357 35.8055Z" fill="#595959"/>
<path d="M37.5656 35.8316C37.5222 35.8229 37.4789 35.8143 37.4355 35.8056C37.4702 35.8056 37.4962 35.8143 37.5309 35.8143C37.5396 35.8229 37.5569 35.8229 37.5656 35.8316ZM39.9231 34.5315C40.3132 34.0807 40.6079 33.5954 40.7986 33.266L40.8592 33.188C40.6859 33.578 40.3478 34.0721 39.9231 34.5315Z" fill="#595959"/>
<path d="M40.7986 32.0005C40.3478 31.6365 39.8365 31.3505 39.2991 31.1338C39.8365 31.3505 40.3305 31.6278 40.7726 31.9832C40.7812 31.9919 40.7899 31.9919 40.7986 32.0005Z" fill="#595959"/>
<path d="M37.7391 35.8402C37.6871 35.8402 37.6264 35.8402 37.5657 35.8315C37.5571 35.8229 37.5397 35.8229 37.5311 35.8142C37.6004 35.8229 37.6697 35.8315 37.7304 35.8315C37.8864 35.8315 38.0425 35.8055 38.1898 35.7708C38.0425 35.8142 37.8864 35.8402 37.7391 35.8402ZM40.7987 33.2659C41.1888 32.7285 41.1194 32.2432 40.7034 31.9225C39.3079 30.8477 37.4011 30.5096 35.5635 30.5096C35.2515 30.5096 34.9481 30.5183 34.6448 30.5356C34.9481 30.5183 35.2515 30.501 35.5635 30.501C36.7943 30.501 38.0511 30.657 39.1606 31.0817C39.1692 31.0817 39.1779 31.0817 39.1866 31.0904C39.1952 31.0904 39.1952 31.0904 39.2039 31.099C39.2039 31.099 39.2039 31.099 39.2126 31.099H39.2212C39.2299 31.1077 39.2386 31.1077 39.2472 31.1077C39.2472 31.1077 39.2472 31.1077 39.2472 31.1164C39.2559 31.1164 39.2646 31.1164 39.2646 31.1164C39.2646 31.1164 39.2732 31.1164 39.2732 31.125C39.2732 31.125 39.2819 31.125 39.2906 31.125C39.2906 31.1337 39.2992 31.1337 39.2992 31.1337C39.8366 31.3504 40.348 31.6364 40.7987 32.0005C41.1541 32.3038 41.1801 32.8499 40.8594 33.1879L40.7987 33.2659Z" fill="#595959"/>
<path d="M37.7303 35.8316C37.6696 35.8316 37.6003 35.823 37.5309 35.8143C37.4963 35.8143 37.4703 35.8056 37.4356 35.8056C37.3749 35.797 37.3143 35.7796 37.2536 35.7623C37.2189 35.7536 37.1756 35.7363 37.1322 35.7276C35.9188 35.3203 36.0488 34.1935 35.3987 33.9421C34.1766 33.4567 32.7898 31.5585 32.7898 31.2725C32.7898 30.5791 33.9512 30.5704 34.6447 30.5358C34.948 30.5184 35.2514 30.5098 35.5634 30.5098C37.4009 30.5098 39.3078 30.8478 40.7033 31.9226C41.1193 32.2433 41.1886 32.7287 40.7986 33.266C40.6079 33.5954 40.3132 34.0808 39.9232 34.5315C39.4118 35.0862 38.7877 35.5889 38.1897 35.771C38.0423 35.8056 37.8863 35.8316 37.7303 35.8316Z" fill="#595959"/>
<path d="M38.5364 34.9912C38.1637 35.3639 37.5917 35.4853 37.115 35.2599C36.2309 34.8352 36.2742 34.2025 35.7715 34.0118C34.8094 33.6651 33.7173 32.2696 33.7173 32.0529C33.726 31.5502 34.636 31.5415 35.1734 31.5155C36.6469 31.4375 38.2504 31.5762 39.4899 32.261C40.0619 32.573 40.1486 33.3704 39.6892 33.8298L38.5364 34.9912Z" fill="#B3B3B3"/>
<path d="M51.1823 39.3073C51.1823 39.784 50.9309 40.2694 50.4889 40.6941C50.1509 40.5988 49.8128 40.4861 49.7001 40.4081C49.4835 40.2521 49.4141 39.42 49.7001 39.0126C49.8822 38.7526 50.4022 38.6312 50.7403 38.5879C51.0089 38.8999 51.1823 39.1686 51.1823 39.3073Z" fill="#595959"/>
<path d="M48.0275 41.8555C47.1348 41.8208 46.268 41.4741 45.5833 40.9107C45.2366 40.6334 44.9159 40.3214 44.5518 40.0873C44.2051 39.8446 43.8498 39.6019 43.4771 39.3766L43.4857 39.3506C43.9278 39.4286 44.3351 39.6366 44.6732 39.9313C44.9939 40.252 45.2539 40.6074 45.6526 40.7981C46.4153 41.2054 47.2128 41.5001 48.0275 41.8295V41.8555Z" fill="#595959"/>
<path d="M44.0317 35.6238C44.1964 35.8752 43.6763 36.0139 43.243 36.0139C42.8009 36.0139 42.4456 35.8405 42.4456 35.6238C42.4456 35.4071 42.8009 35.0518 43.243 35.0518C43.6763 35.0518 43.919 35.4505 44.0317 35.6238Z" fill="#595959"/>
<path d="M47.7152 35.0256C47.5332 35.0776 47.3512 35.0602 47.2559 34.9476C47.2559 34.7222 47.2992 34.3408 47.4552 34.2195L47.5159 34.1675C47.6979 34.2282 47.8886 34.9129 47.7152 35.0256Z" fill="#595959"/>
<path d="M31.7931 49.2144C31.7931 49.2144 29.5222 48.7203 28.4995 48.3736C28.2654 48.287 28.0228 48.2003 27.7974 48.105C27.8754 47.9229 28.7768 45.5914 27.8147 43.9445C26.5406 41.7516 19.9966 39.1947 18.1157 38.4406L17.9944 38.3886C16.8936 37.9553 15.6195 37.8859 14.354 38.3193C12.4212 38.9867 11.017 40.8069 10.9043 42.8524C10.705 46.2761 13.652 48.8244 16.8503 48.339C17.7604 48.209 18.6185 48.0789 19.4505 47.9836C20.2826 47.8796 21.08 47.8189 21.7821 47.7929C23.0736 47.5936 23.2036 48.625 23.2643 49.0931C23.2816 49.2144 23.3596 49.3097 23.481 49.3444C23.897 49.4571 24.9371 49.7258 25.3618 49.7865C26.922 50.0291 30.3457 50.2198 31.4378 50.8092C32.4432 51.3466 33.57 51.4246 33.6653 50.9652C33.7693 50.4105 32.3392 49.3271 31.7931 49.2144Z" fill="#B3B3B3"/>
<path d="M84.8039 47.0908C84.7865 47.2295 84.7605 47.4462 84.6912 47.6542C84.5525 48.0963 84.2665 48.573 83.7551 48.5296C83.1137 48.5816 82.0129 47.9402 81.4842 47.4115C80.5308 46.4668 79.9327 45.0626 77.9998 44.7419C77.4104 44.5859 77.4018 43.8231 77.5404 43.1384C77.5925 42.8437 77.6791 42.575 77.7658 42.367C77.9045 42.0116 77.7745 41.1969 77.5838 40.3388C77.2978 39.0647 76.8557 37.6779 76.8557 37.4092C77.0637 37.3398 79.6727 36.4037 79.898 36.4297C79.924 37.1058 80.0887 38.6226 80.3661 39.9748C80.4527 40.4168 80.5481 40.8502 80.6608 41.2316C80.7128 41.4482 80.7821 41.6476 80.8601 41.8296C81.3715 43.1904 83.365 44.9499 83.5557 45.1146L83.5731 45.1319C83.8504 45.2793 84.0758 45.4526 84.2405 45.6C84.7692 46.094 84.8299 46.5621 84.8039 47.0908Z" fill="#F2AA8B"/>
<path d="M83.6769 48.5299C83.6596 48.5299 83.6509 48.5299 83.6422 48.5299C83.3389 48.5212 82.9488 48.3826 82.5675 48.1919C82.8968 48.0359 83.2175 47.8018 83.3475 47.4985C83.6682 46.7617 85.5231 45.6609 82.2381 45.4356C80.5479 45.0195 78.4764 43.9448 77.6963 42.9827C77.6703 42.922 77.6443 42.8613 77.627 42.792L77.653 42.6793C77.6876 42.5666 77.7223 42.4626 77.7656 42.3673C77.8003 42.2633 77.8263 42.1159 77.8176 41.9426C77.8176 41.8039 77.809 41.6479 77.7916 41.4745C77.9216 41.4919 78.0603 41.4919 78.2077 41.4919C79.0571 41.4919 80.0712 41.3185 80.5913 40.9805C80.6173 41.0585 80.6346 41.1452 80.6606 41.2318C80.6606 41.2318 80.5739 41.8039 78.5544 42.0639C78.485 42.3499 78.3637 42.8267 78.7537 43.2167C79.2304 43.7107 79.6378 44.2655 81.224 44.8635C82.0127 45.1669 83.6769 45.5656 83.9456 45.739C84.4743 46.0163 84.0929 46.3804 83.9976 46.7704C83.8589 47.3424 84.1189 47.6545 84.5783 47.6545C84.613 47.6545 84.6477 47.6545 84.691 47.6545C84.5523 48.0792 84.2923 48.5299 83.8243 48.5299H83.8156C83.7982 48.5299 83.7809 48.5299 83.7636 48.5299H83.7549C83.7289 48.5299 83.7029 48.5299 83.6769 48.5299Z" fill="#F19677"/>
<path d="M76.1883 14.5353C76.1883 14.5353 76.2143 14.6306 76.0756 14.7173C75.9369 14.804 75.1135 14.414 75.1135 14.414C75.1135 14.414 75.9803 14.336 76.1883 14.5353Z" fill="#B3B3B3"/>
<path d="M74.7493 6.45732C74.81 4.55913 74.0213 2.72161 72.5478 1.52549C71.5423 0.693404 70.1815 0 68.4394 0C64.1402 0 62.9441 2.11488 61.618 6.15396C60.6992 8.94491 58.021 10.5484 56.4608 11.2591C55.7067 11.6058 55.2907 12.3253 55.0047 13.1053C54.0772 15.6796 51.6416 22.1629 55.2993 24.8239C57.1715 26.1847 60.5259 23.3157 63.9322 20.4467C66.8359 17.9852 69.7828 15.5322 71.837 15.7316C77.627 16.295 74.6713 9.22227 74.7493 6.45732Z" fill="#CD7223"/>
<path d="M81.0508 20.9497C80.2967 22.0765 78.3639 21.7905 77.1678 21.2444C75.4169 20.4644 74.2121 20.421 72.3399 19.5196C71.5165 19.1122 70.6671 18.6788 69.861 18.2108C68.8122 17.6214 67.7981 16.98 66.8534 16.2953C65.5186 15.3245 65.2065 13.4437 66.186 12.1002C67.1307 10.7914 68.9422 10.4707 70.2684 11.3548C71.8372 12.3689 73.328 13.331 75.0182 14.1804L75.2002 14.2757C75.4169 14.3797 75.6423 14.5011 75.885 14.6311H75.8936C76.0063 14.6831 76.119 14.7351 76.2403 14.8045C77.5838 15.4892 78.9879 16.2693 80.2967 17.1447C81.5709 17.9854 81.9002 19.6843 81.0508 20.9497Z" fill="#F2AA8B"/>
<path d="M76.2055 17.6211C76.1622 17.569 76.1275 17.517 76.0928 17.4824C75.9368 17.3264 75.7981 17.1877 75.6161 17.0403C75.3387 16.815 75.0181 16.6156 74.68 16.4683C74.2553 16.2602 73.8046 16.1562 73.3625 16.1562C73.5099 15.0641 74.8274 14.5701 75.6248 14.4834C75.7028 14.5354 75.7895 14.5787 75.8848 14.6307C75.7461 14.6307 74.68 14.6394 74.0386 15.3762C73.6659 15.8095 74.446 16.0522 74.9747 16.2862C75.5294 16.5289 76.4049 17.1877 77.0549 17.1877C77.0809 17.1877 77.1069 17.179 77.1329 17.179C77.5576 17.1443 78.095 17.0923 78.6064 17.0923C78.8144 17.0923 79.0138 17.101 79.2045 17.1183C79.1525 17.1183 79.0918 17.1097 79.0311 17.1097C78.9011 17.1097 78.7624 17.127 78.6238 17.1443C77.809 17.283 77.0029 17.4477 76.2055 17.6211Z" fill="#EE926F"/>
<path d="M76.1883 14.5358C75.885 14.3104 73.5621 14.6831 73.3627 16.1566C73.198 17.292 71.2998 17.8208 69.861 18.2108C68.8122 17.6214 67.7981 16.98 66.8534 16.2953C65.5186 15.3245 65.2065 13.4437 66.186 12.1002C67.1307 10.7914 68.9422 10.4707 70.2684 11.3548C71.8372 12.3689 73.1547 12.8629 74.8448 13.721C75.2522 13.9117 75.8156 14.2237 76.1883 14.5358Z" fill="#AF91CF"/>
<path d="M54.2855 33.0491C54.1989 31.9917 55.213 27.5192 55.187 25.6037C55.1436 23.7835 54.8923 21.7033 54.8836 19.9091V19.0943C54.8576 16.4767 54.8663 13.8331 54.8663 13.8331C55.1176 10.7128 58.2033 10.4875 61.809 10.3314C62.8491 10.2881 63.9412 10.2534 65.0246 10.1494C72.0453 9.5167 70.8665 13.8158 72.7994 18.8863C73.0508 19.5451 73.2068 28.2819 73.4408 29.9288C79.2654 34.1585 55.395 47.6799 54.2855 33.0491Z" fill="#AF91CF"/>
<path d="M69.9563 16.3467C69.8697 16.312 69.7743 16.2774 69.679 16.2427C69.549 15.2113 69.2283 14.1191 69.2283 14.1191C69.2283 14.1191 69.809 15.3326 69.9563 16.3467Z" fill="#595959"/>
<path d="M65.9171 13.0272C64.825 11.3371 63.2649 10.0109 63.1609 8.00873C62.8055 0.736657 72.0451 -1.10086 73.7266 4.94042C75.3301 10.7303 70.6496 20.3773 65.9171 13.0272Z" fill="#F2AA8B"/>
<path d="M79.4906 29.3396C79.1959 27.5021 78.8752 25.6472 78.4765 23.749C78.2598 22.8043 78.0431 21.8595 77.7311 20.8541C77.5837 20.3427 77.4277 19.8226 77.1677 19.2246C77.0377 18.9299 76.3703 17.7857 76.0929 17.4824C75.9369 17.3264 75.7982 17.1877 75.6162 17.0403C75.3388 16.815 75.0181 16.6156 74.6801 16.4683C74.2554 16.2603 73.8047 16.1562 73.3626 16.1562C72.7906 16.1562 72.2272 16.3123 71.7591 16.6156C71.3084 16.8843 70.9184 17.2744 70.6584 17.7597L63.915 30.2757C63.4903 31.0558 63.2303 31.9485 63.1696 32.8933C63.1436 33.24 63.1609 33.578 63.1869 33.9161C63.4816 36.9497 65.9432 39.4026 69.0982 39.5933C70.7797 39.706 72.3399 39.1339 73.5273 38.1372C74.3941 37.3917 75.0615 36.447 75.4342 35.3462C75.9109 37.2531 76.3703 39.1773 76.8037 41.1015C76.951 41.7949 81.0508 41.5608 80.9294 40.4167C80.522 36.7243 80.0627 33.0493 79.4906 29.3396Z" fill="url(#paint0_linear_2002_11681)"/>
<path d="M56.6082 29.7124C57.8477 27.5282 57.891 26.3927 57.3276 24.1565C57.0676 23.151 55.8022 20.6375 55.3081 17.7772C54.8661 15.1769 55.0221 14.1888 55.0221 14.1888C55.0481 13.8508 55.1001 13.5734 55.1694 13.348C55.1261 15.1942 56.0795 18.1412 56.5996 19.1986L56.8769 19.736L59.6332 25.1792C59.6592 25.2226 59.6939 25.2746 59.7286 25.3179C58.6884 26.8347 57.6917 28.2909 56.7036 29.5824C56.6776 29.617 56.6429 29.6604 56.6082 29.7124ZM63.0049 20.9582C62.5542 19.944 62.1208 18.9039 61.7481 18.0112C61.124 16.5204 60.682 15.4023 60.656 15.3502C60.3353 14.7088 59.7199 13.7814 58.9658 13.0273C59.4512 13.1054 59.9799 13.1574 60.5606 13.1574C60.6733 13.1574 60.7947 13.1574 60.916 13.1487L63.837 19.9527C63.5683 20.2734 63.2822 20.6201 63.0049 20.9582Z" fill="url(#paint1_linear_2002_11681)"/>
<path d="M83.3476 47.4982C83.0963 48.053 82.2382 48.391 81.7875 48.391C81.5968 48.391 80.8947 48.287 80.704 48.209C80.704 48.209 76.6303 46.8395 75.6682 46.8742C74.8621 46.8395 73.9173 46.5188 74.3767 44.6033L74.394 44.5599C74.6367 43.3985 74.316 42.0377 73.8913 40.8069C73.3626 39.3421 72.6605 38.1026 72.5825 37.7819C72.8859 37.7299 75.4948 37.1839 76.6736 37.2705C76.847 37.7126 77.0116 39.7668 77.2977 41.379C77.3583 41.717 77.4103 42.0204 77.497 42.2977C77.549 42.5664 77.627 42.8004 77.6964 42.9824C78.4765 43.9445 80.548 45.0193 82.2382 45.4354C85.5232 45.6607 83.6683 46.7615 83.3476 47.4982Z" fill="#F2AA8B"/>
<path d="M69.627 5.20915C69.627 5.20915 72.0452 8.0261 73.7181 8.11278C76.5263 8.25146 74.0474 0.927381 71.0224 1.39543C68.5869 1.76813 66.3853 -2.19294 61.9389 7.47138C60.8727 9.9243 58.0471 9.06621 56.0449 11.5018C56.5563 11.6145 59.5206 9.83762 63.1523 20.5854C64.3224 24.0524 66.784 13.3913 65.7786 9.50825C66.2726 7.35003 69.4536 8.31213 69.627 5.20915Z" fill="#CD7223"/>
<path d="M74.394 44.56C74.4547 44.274 74.4807 43.9879 74.4807 43.6846C74.4807 43.3985 74.4547 43.1125 74.4114 42.8265C74.4807 42.8265 74.5587 42.8265 74.6367 42.8265C75.5988 42.8265 76.9076 42.4884 77.4103 41.9771C77.4364 42.0897 77.471 42.1937 77.497 42.2978L77.471 42.4018C77.471 42.4018 77.0376 43.1385 75.2521 43.2598C74.8101 43.6499 74.4721 44.378 74.394 44.56Z" fill="#F19677"/>
<path d="M64.9899 9.74252C65.3539 10.4879 65.7613 11.0947 66.2814 10.9733C66.8014 10.852 66.3334 10.0892 66.6281 9.35248C66.9401 8.58973 66.5414 7.84432 65.5966 8.06968C64.6519 8.28637 64.7559 9.25713 64.9899 9.74252Z" fill="#F2AA8B"/>
<path d="M73.5533 42.4367C72.4266 38.7356 69.7223 30.8308 69.6096 30.5535C69.4016 31.9229 68.8295 35.0519 68.8295 35.0519C68.0928 38.7616 64.4957 41.1539 60.786 40.4171C58.3765 39.9317 56.5129 38.2329 55.7329 36.0833C55.2995 34.9392 55.1868 33.6651 55.4382 32.3823C55.6462 31.3509 56.1056 30.3714 56.7036 29.5827C58.0211 27.8665 59.3386 25.8556 60.7774 23.8101C62.2249 21.7732 65.7785 17.6648 65.7785 17.6648L66.3333 17.0754C67.5901 15.784 69.6356 15.7579 70.9184 16.9974C71.1958 17.2574 71.4211 17.5781 71.5858 17.8988C72.7039 20.1957 73.1893 22.0506 73.7787 24.0355C74.3161 25.9857 74.7928 27.9185 75.2435 29.86C76.1449 33.7171 76.9163 37.5742 77.6271 41.4486C77.8351 42.5927 73.822 43.3208 73.5533 42.4367Z" fill="url(#paint2_linear_2002_11681)"/>
<path d="M68.9683 23.0558C68.1535 23.1164 67.4428 22.501 67.3908 21.6863C67.3388 21.0709 67.6768 20.5162 68.1968 20.2561C69.8697 19.4154 71.6032 18.8433 73.3454 18.3579C75.0875 17.8639 76.8211 17.4565 78.6239 17.1445C79.9414 16.9278 81.1808 17.8119 81.4062 19.1207C81.6315 20.4382 80.7388 21.6776 79.43 21.903L68.9683 23.0558Z" fill="#F2AA8B"/>
<path d="M62.1382 40.5554C61.6962 40.5554 61.2455 40.5121 60.7861 40.4167C58.3765 39.9313 56.513 38.2325 55.7329 36.0829C55.7329 36.0829 55.8196 36.109 55.8803 36.2216C56.617 37.5044 57.9258 38.0765 59.3386 38.0765C62.0776 38.0765 65.2065 35.9096 65.2065 32.6419C65.2065 30.7784 65.4752 28.9929 65.8306 27.4761C66.472 27.5541 67.0961 27.6148 67.7288 27.6581C67.9195 27.6668 68.1102 27.6754 68.3009 27.6841C68.6216 28.6635 69.0463 29.669 69.6097 30.5531C69.4016 31.9225 68.8296 35.0515 68.8296 35.0515C68.5175 36.6117 67.7028 37.9465 66.576 38.9086C65.3626 39.9487 63.8024 40.5554 62.1382 40.5554Z" fill="url(#paint3_linear_2002_11681)"/>
<path d="M69.6096 22.9866C69.2369 23.0993 68.9595 23.3073 68.7428 23.5587C68.2141 24.1827 68.1361 25.1015 68.1361 25.7169C67.9108 25.8816 67.7461 25.9856 67.7114 25.9856C67.6507 25.9683 65.7352 24.9282 64.4091 24.1827C64.1664 23.8274 64.123 23.446 64.4004 23.056C64.5824 22.8046 64.7731 22.5793 64.9985 22.3626C66.3073 21.0798 68.1881 20.2563 68.1881 20.2563C68.1881 20.2563 71.4905 22.3886 69.6096 22.9866Z" fill="#F2AA8B"/>
<path d="M68.474 23.9745C68.4047 23.9658 68.3353 23.9485 68.2746 23.9311C67.2172 23.6971 66.1858 23.4024 65.2497 23.0557C65.0243 22.9864 64.8076 22.8997 64.5996 22.8043C64.721 22.6483 64.851 22.501 64.9983 22.3623C65.8911 22.6657 67.5899 23.2551 68.7427 23.5584C68.6387 23.6884 68.5433 23.8271 68.474 23.9745Z" fill="#F19674"/>
<path d="M56.331 20.0136C56.331 20.0136 56.4437 20.1783 57.3105 19.6409C57.4751 18.8175 56.1057 19.5802 56.331 20.0136Z" fill="#B3B3B3"/>
<path d="M75.9802 26.4273C75.9109 27.0861 75.3822 27.5975 74.7408 27.6408C72.3832 27.7968 70.095 27.7968 67.7287 27.6581C66.5413 27.5715 65.3625 27.4501 64.123 27.2074C62.8836 26.9301 61.6268 26.722 60.0493 25.6213C59.8673 25.4912 59.7286 25.3439 59.6332 25.1792L56.877 19.736L56.5996 19.1986C55.8715 17.7164 54.294 12.5679 55.7848 11.8659C57.683 10.9904 59.9279 13.8854 60.656 15.3502C60.682 15.4022 61.1241 16.5203 61.7481 18.0111C62.2855 19.2939 62.9529 20.8801 63.5943 22.2582C63.993 22.5269 64.6257 22.8476 65.2498 23.0557C66.1859 23.4024 67.2173 23.6971 68.2748 23.9311C70.3637 24.4078 74.7668 24.9799 74.7668 24.9799C75.5035 25.0492 76.0496 25.6906 75.9802 26.4273Z" fill="#F2AA8B"/>
<path d="M61.7481 18.0111C61.5314 17.1097 56.0968 19.6233 56.3308 20.0133L56.0448 19.4673C55.3254 17.9938 54.294 12.5679 55.7848 11.8659C57.683 10.9904 59.9279 13.8854 60.6559 15.3502C60.6819 15.4022 61.124 16.5203 61.7481 18.0111Z" fill="#AF91CF"/>
<path d="M61.9126 23.1511C62.3633 22.3016 63.5941 22.2583 63.5941 22.2583C63.5941 22.2583 62.7533 22.6137 61.9126 23.1511Z" fill="#F19674"/>
<path d="M74.7669 24.9797C74.7669 24.9797 76.0323 24.7717 76.353 24.659C76.6824 24.5464 78.4766 24.2343 78.8926 24.3557C79.2567 24.4684 79.2827 24.633 79.196 25.0491C79.144 25.2831 79.248 25.2398 79.3173 25.4825C79.1613 25.8032 79.3607 25.9852 79.3607 26.2105C79.2913 26.3926 79.222 26.6266 79.3867 26.8346C79.6034 27.086 79.1093 27.3547 78.1992 27.3287C76.7431 27.2853 76.7777 27.5453 74.7409 27.6407C72.704 27.736 74.7669 24.9797 74.7669 24.9797Z" fill="#F2AA8B"/>
<path d="M75.0873 24.9018C75.3733 24.6938 75.6507 24.5378 75.928 24.3644C76.2054 24.1997 76.5001 24.0437 76.8208 23.9137C76.9942 23.853 77.1588 23.7924 77.3582 23.7664C77.4535 23.749 77.5749 23.749 77.6789 23.749L77.9042 23.7664C78.1989 23.7837 78.4936 23.827 78.7883 23.8184H78.797C78.927 23.8184 79.031 23.9224 79.0397 24.0524C79.0397 24.1737 78.9444 24.2777 78.823 24.2951C78.5283 24.3211 78.2336 24.3991 77.9389 24.4598L77.7136 24.5118L77.6009 24.5724C77.5142 24.6244 77.4189 24.7025 77.3235 24.7805C76.9508 25.1272 76.5781 25.5952 76.3181 26.0546C76.0841 26.4793 75.5553 26.6266 75.1393 26.384C74.7233 26.1499 74.5759 25.6212 74.8099 25.2052C74.8706 25.0925 74.9573 24.9972 75.0526 24.9278L75.0873 24.9018Z" fill="#F2AA8B"/>
<path d="M71.0137 45.6519C71.0137 46.7266 70.5023 56.573 59.5205 56.573C49.1368 56.573 48.0273 46.7266 48.0273 45.6519C48.0273 44.5684 53.1759 43.7017 59.5205 43.7017C65.8652 43.7017 71.0137 44.5684 71.0137 45.6519Z" fill="url(#paint4_linear_2002_11681)"/>
<path d="M71.0223 45.6519C71.0223 45.8772 70.7797 46.0939 70.3549 46.3106C68.7601 47.056 64.513 47.6021 59.5205 47.6021C53.9386 47.6021 49.2928 46.9173 48.2527 46.0246C48.0967 45.9032 48.0273 45.7732 48.0273 45.6519C48.0273 45.2185 48.9028 44.7851 50.4023 44.4644C50.4629 44.4557 50.5496 44.4211 50.6449 44.4124L50.7576 44.3951C51.2603 44.2824 51.8324 44.2044 52.4565 44.1177C53.1672 44.0224 53.9646 43.9357 54.814 43.8663C56.2528 43.7537 57.839 43.7017 59.5205 43.7017C60.682 43.7017 61.8087 43.7277 62.8662 43.7883C63.1175 43.797 63.3602 43.8143 63.5943 43.823C63.8196 43.8403 64.0363 43.8577 64.253 43.8663C64.6257 43.9097 64.9724 43.9357 65.3191 43.9617C68.7341 44.3171 71.0223 44.9411 71.0223 45.6519Z" fill="url(#paint5_linear_2002_11681)"/>
<path d="M70.355 46.311C70.3377 46.0597 70.2423 45.817 69.9996 45.6523C69.9996 45.6523 69.8176 45.6003 69.5316 45.6003C69.3322 45.6003 69.0722 45.6263 68.8035 45.7216C68.7948 45.7563 68.7862 45.7736 68.7688 45.7736C68.6908 45.7736 68.5261 45.3403 68.4568 45.1582C69.6009 45.3923 70.4417 45.661 70.8664 45.9643C70.7624 46.0683 70.6237 46.1637 70.4503 46.259C70.4157 46.2764 70.381 46.2937 70.355 46.311ZM56.1142 45.6696C55.9149 45.6696 55.6635 44.9589 55.6635 44.9589C55.6635 44.9589 55.6895 44.7682 55.6982 44.5775C56.9376 44.4995 58.2811 44.4648 59.6939 44.4648C59.8759 44.4648 60.058 44.4648 60.24 44.4648C60.6213 45.0976 58.9572 45.6523 58.9572 45.6523C58.9572 45.6523 58.4805 44.8722 57.9431 44.8722C57.8477 44.8722 57.7524 44.8982 57.657 44.9589C57.0156 45.3143 57.3797 45.6523 57.3797 45.6523C57.3797 45.6523 56.929 45.5916 56.5736 45.5916C56.3916 45.5916 56.2356 45.609 56.1662 45.6523C56.1489 45.661 56.1316 45.6696 56.1142 45.6696ZM49.1715 45.661C49.1455 45.661 49.1195 45.661 49.0935 45.661C49.3362 45.557 49.6222 45.4616 49.9516 45.3749C49.7696 45.5483 49.4749 45.661 49.1715 45.661ZM62.4675 45.2016C62.0602 45.2016 61.5054 45.0716 61.2974 44.9589C61.0634 44.8202 61.1414 44.6642 61.2194 44.4822C61.7568 44.4908 62.2942 44.5082 62.8142 44.5342C62.8576 44.6729 62.9096 44.8029 62.9356 44.9589C62.9703 45.1322 62.7536 45.2016 62.4675 45.2016ZM51.6591 45.1062C51.6331 45.1062 51.6158 45.0976 51.5984 45.0802C51.5811 45.0716 51.5724 45.0542 51.5638 45.0369C51.6678 45.0196 51.7718 45.0022 51.8758 44.9849C51.7978 45.0629 51.7198 45.1062 51.6591 45.1062Z" fill="url(#paint6_linear_2002_11681)"/>
<path d="M70.3552 46.3108C68.7603 47.0562 64.5133 47.6022 59.5207 47.6022C53.9388 47.6022 49.293 46.9175 48.2529 46.0247C48.5476 45.7907 48.825 45.626 49.033 45.652C49.6051 45.7214 50.2031 45.3487 50.1511 44.9413C50.1165 44.6206 50.0298 44.2739 50.2985 44.2045C50.3678 44.1872 50.5672 44.0745 50.6712 44.0659L51.0179 44.2045C51.4686 44.2045 51.3992 44.8893 51.5986 45.08C51.7633 45.2447 52.266 44.5946 52.4567 44.1179C52.526 43.9359 52.5694 43.7885 52.526 43.7018C52.3874 43.3638 52.8901 43.0171 52.8901 43.0171C52.8901 43.0171 53.9822 42.6877 54.2855 43.0171C54.5109 43.2598 54.3029 43.7018 54.3029 43.7018C54.3029 43.7018 54.5369 43.7712 54.8143 43.8665C55.187 44.0052 55.6203 44.1785 55.6637 44.2999C55.733 44.5079 55.6637 44.9586 55.6637 44.9586C55.6637 44.9586 55.9584 45.7907 56.1664 45.652C56.3744 45.5133 57.3799 45.652 57.3799 45.652C57.3799 45.652 57.0158 45.314 57.6572 44.9586C58.2986 44.5772 58.9574 45.652 58.9574 45.652C58.9574 45.652 60.7949 45.0366 60.1621 44.3692C59.5207 43.7018 61.2976 43.7972 61.2976 44.1612C61.2976 44.5079 60.9422 44.7419 61.2976 44.9586C61.653 45.1493 63.0051 45.392 62.9358 44.9586C62.8664 44.5339 62.5631 44.2045 62.8664 43.7885L62.9358 43.7018C63.3691 43.2251 63.6465 43.5631 63.6465 43.7018L63.5945 43.8232C63.4558 44.0225 63.1351 44.3519 63.6465 44.2999C63.8719 44.2739 64.0799 44.0919 64.2532 43.8665C64.5826 43.4505 64.2532 43.0171 64.7906 42.8957C65.3367 42.7657 65.6574 43.1558 65.25 43.7018L65.3193 43.9619L65.4493 44.4819C65.4493 44.4819 65.796 44.2305 66.3681 44.3692C66.5848 44.4212 66.7668 44.4126 66.9402 44.4126C67.2262 44.3952 67.5036 44.3866 67.8589 44.6466C68.431 45.08 68.431 45.08 68.431 45.08C68.431 45.08 68.7517 45.9901 68.8037 45.7214C69.4451 45.496 69.9998 45.652 69.9998 45.652C70.2425 45.8167 70.3378 46.0594 70.3552 46.3108Z" fill="url(#paint7_linear_2002_11681)"/>
<path d="M58.2811 47.5934C55.6201 47.5414 53.2365 47.3334 51.4337 47.03C51.4337 46.952 51.4164 46.874 51.321 46.796C50.9917 46.5273 51.3817 46.3886 51.7284 46.3886C51.9277 46.3886 52.1184 46.4406 52.1271 46.536C52.1618 46.7873 51.9277 46.9954 52.2051 47.1167C52.3265 47.16 52.5865 47.1947 52.8292 47.1947C53.1585 47.1947 53.4619 47.134 53.4099 46.9607C53.3232 46.6573 53.0632 46.4493 53.2452 46.1113L53.2886 46.0419C53.4099 45.8772 53.5139 45.8252 53.6092 45.8252C53.7219 45.8252 53.7999 45.9206 53.8086 45.9726L53.7826 46.0766C53.7046 46.2066 53.5486 46.432 53.7479 46.432C53.7739 46.432 53.8173 46.4233 53.8693 46.4146C54.0253 46.3713 54.164 46.2239 54.268 46.0419C54.4673 45.7039 54.1813 45.4179 54.5713 45.2792C54.6407 45.2532 54.71 45.2358 54.7707 45.2358C55.0394 45.2358 55.1781 45.4699 54.9787 45.8252L55.0567 46.0073L55.2041 46.38C55.2041 46.38 55.3861 46.1979 55.7415 46.1979C55.7761 46.1979 55.8195 46.2066 55.8628 46.2066C55.9061 46.2153 55.9408 46.2153 55.9842 46.2153C56.0882 46.2153 56.1835 46.1979 56.2789 46.1806C56.3655 46.1633 56.4609 46.1546 56.5562 46.1546C56.6776 46.1546 56.8162 46.1806 56.9809 46.2673C57.4403 46.536 57.4403 46.536 57.4403 46.536C57.4403 46.536 57.683 47.004 57.7523 47.004C57.761 47.004 57.7697 46.9954 57.7783 46.9693C58.0644 46.822 58.3504 46.796 58.5064 46.796C58.5931 46.796 58.6451 46.8047 58.6451 46.8047C58.8358 46.9 58.9311 47.0647 58.9658 47.2467C58.7838 47.3594 58.5498 47.4721 58.2811 47.5934Z" fill="#AF91CF"/>
<path d="M63.9151 46.8655C63.8458 46.8655 63.7591 46.8655 63.6724 46.8569L62.9443 46.1721C62.6323 45.9208 62.9877 45.7127 63.239 45.7127C63.3344 45.7127 63.4124 45.7474 63.4384 45.8168C63.5077 46.0594 63.3864 46.2935 63.5944 46.3801C63.6377 46.3888 63.7071 46.3975 63.7851 46.3975C64.0624 46.3975 64.4612 46.3021 64.3658 46.0681C64.2531 45.7908 64.0364 45.6087 64.0971 45.2534L64.1145 45.184C64.1665 44.9847 64.2358 44.924 64.3051 44.924C64.3745 44.924 64.4352 45.002 64.4525 45.054V45.1494C64.4265 45.288 64.3658 45.5134 64.4785 45.5134C64.4958 45.5134 64.5305 45.4961 64.5738 45.4787C64.6692 45.418 64.7299 45.2447 64.7645 45.0627C64.8425 44.6986 64.5998 44.4559 64.8252 44.2653C64.8859 44.2219 64.9379 44.2046 64.9899 44.2046C65.1546 44.2046 65.2672 44.4039 65.2066 44.7506L65.2932 44.9327L65.4493 45.2707C65.4493 45.2707 65.5619 45.028 65.8653 45.0193C66.082 45.0107 66.1947 44.872 66.3854 44.872C66.446 44.872 66.524 44.8893 66.6194 44.9413C66.9747 45.1407 66.9747 45.1407 66.9747 45.1407C66.9747 45.1407 66.8707 45.3054 66.7667 45.4354H66.7754C66.9054 45.4354 66.9834 45.5741 66.9834 45.5741C67.1308 45.6434 67.1048 46.2415 67.1568 46.4148C67.1394 46.4408 67.0961 46.4495 67.0354 46.4495C66.7234 46.4495 65.9866 46.2328 65.7006 46.2068C64.0451 46.4755 64.7905 46.8655 63.9151 46.8655Z" fill="#AF91CF"/>
<path d="M59.3039 56.5729C59.2952 56.5729 59.2952 56.5729 59.2952 56.5729H59.3039ZM59.0005 56.5642C58.9745 56.5642 58.9572 56.5642 58.9312 56.5642C58.9572 56.5642 58.9832 56.5642 59.0005 56.5642Z" fill="#AF91CF"/>
<path d="M59.5206 56.5733C59.5119 56.5733 59.4946 56.5733 59.4859 56.5733C59.4773 56.5733 59.4773 56.5733 59.4686 56.5733C59.4599 56.5733 59.4513 56.5733 59.4339 56.5733C59.4166 56.5733 59.4079 56.5733 59.3906 56.5733H59.3819C59.3733 56.5733 59.3559 56.5733 59.3473 56.5733C59.3473 56.5733 59.3473 56.5733 59.3386 56.5733C59.3299 56.5733 59.3126 56.5733 59.3039 56.5733H59.2953C59.2779 56.5733 59.2693 56.5733 59.2606 56.5733H59.2519C59.2433 56.5733 59.2259 56.5733 59.2172 56.5733C59.2086 56.5733 59.2086 56.5733 59.1999 56.5733C59.1912 56.5733 59.1826 56.5733 59.1739 56.5646H59.1652C59.1479 56.5646 59.1392 56.5646 59.1306 56.5646C59.1219 56.5646 59.1132 56.5646 59.1132 56.5646C59.1046 56.5646 59.0959 56.5646 59.0872 56.5646C59.0872 56.5646 59.0786 56.5646 59.0699 56.5646C59.0612 56.5646 59.0526 56.5646 59.0439 56.5646C59.0352 56.5646 59.0266 56.5646 59.0179 56.5646C59.0179 56.5646 59.0092 56.5646 59.0006 56.5646C58.9832 56.5646 58.9572 56.5646 58.9312 56.5646C58.9226 56.5646 58.9226 56.5646 58.9226 56.5646C55.0395 56.4173 52.5259 54.8485 50.9051 52.9329C50.8964 52.9329 50.8964 52.9329 50.8964 52.9243H50.8877C49.5009 51.2861 48.7729 49.3966 48.4001 47.9404C49.8736 50.766 52.7686 53.6783 58.4112 53.6783C66.81 53.6783 68.5782 48.1311 69.0376 47.013C70.355 46.727 70.8404 46.4583 70.9878 46.0596C70.9184 47.1343 70.199 56.5386 59.5813 56.5733C59.5726 56.5733 59.5639 56.5733 59.5553 56.5733C59.5466 56.5733 59.5293 56.5733 59.5206 56.5733Z" fill="#AF91CF"/>
<path d="M54.84 48.6164C50.9916 48.4951 48.7207 47.3943 48.6254 47.3423L48.5474 47.1083L48.7814 47.0303C48.8074 47.0389 51.087 48.1484 54.8487 48.2697C54.944 48.2784 55.022 48.3564 55.022 48.4518C55.0134 48.5471 54.9353 48.6164 54.84 48.6164Z" fill="#E3E2D4"/>
<path d="M57.9951 48.7812C57.0764 48.7812 56.3136 48.7291 55.9582 48.7031C55.8716 48.7205 55.7849 48.6598 55.7676 48.5645C55.7502 48.4691 55.8196 48.3738 55.9149 48.3564H55.9842C56.4436 48.3911 57.6571 48.4691 58.9572 48.4171H58.9659C59.0526 48.4171 59.1306 48.4865 59.1392 48.5818C59.1392 48.6771 59.0699 48.7552 58.9745 48.7638C58.6365 48.7812 58.3071 48.7812 57.9951 48.7812Z" fill="#E3E2D4"/>
<path d="M45.2799 53.7646C45.0719 53.0452 44.6212 52.6552 45.2799 52.8892C45.9386 53.1232 45.982 53.2792 45.9386 53.4699C45.904 53.6693 45.826 53.7039 46.138 53.7646C46.45 53.8253 47.1868 54.25 46.7361 54.2933C46.294 54.328 46.0167 54.2933 46.0167 54.2933C46.0167 54.2933 46.3027 54.8307 45.826 54.9867C45.3579 55.1428 45.1499 55.4114 45.0892 54.9867C45.0286 54.562 44.9679 54.2327 44.6385 54.4407C44.3092 54.6574 44.1965 55.1601 44.0231 54.6227C43.8411 54.0766 45.0459 54.0593 45.0459 54.0593L45.2799 53.7646Z" fill="url(#paint8_linear_2002_11681)"/>
<path d="M42.4975 48.226C42.4975 48.226 43.2342 47.4026 43.3122 47.8099C43.3902 48.2173 43.2949 48.3907 43.5462 48.356C43.7976 48.3213 44.0576 47.8966 43.9969 48.3647C43.9363 48.8241 44.0143 48.9627 43.5116 48.8587C43.0088 48.7634 42.6535 48.7807 42.8268 49.0147C43.0088 49.2488 43.5636 49.4654 42.9048 49.4654C42.2461 49.4654 42.1681 49.6561 42.1161 49.3094C42.0554 48.9627 41.9341 48.5727 41.648 48.9021C41.3533 49.2314 40.7899 49.7168 40.9026 48.9627C41.024 48.2 41.3707 48.044 41.6654 48.226C41.9601 48.4167 42.4975 48.3993 42.4975 48.226Z" fill="url(#paint9_linear_2002_11681)"/>
<path d="M75.1482 50.6793C75.1482 50.6793 74.5675 51.6154 74.4202 51.2341C74.2728 50.844 74.3335 50.6533 74.0908 50.7313C73.8568 50.818 73.6748 51.2687 73.6574 50.8094C73.6314 50.3413 73.5361 50.22 74.0475 50.2286C74.5588 50.2373 74.9055 50.1593 74.6889 49.9599C74.4808 49.7606 73.8828 49.6479 74.5328 49.5352C75.1829 49.4225 75.2262 49.2145 75.3476 49.5526C75.4689 49.8819 75.6423 50.246 75.8763 49.8733C76.1103 49.5006 76.5784 48.9198 76.5957 49.6912C76.6131 50.454 76.2924 50.6707 75.9717 50.5407C75.651 50.402 75.1222 50.5147 75.1482 50.6793Z" fill="url(#paint10_linear_2002_11681)"/>
<path d="M36.9675 48.4084C36.7508 49.0238 36.8115 49.4138 37.2188 49.2058C37.6262 49.0064 37.9382 48.5644 38.1289 48.8071C38.3196 49.0498 38.3456 49.8039 38.7097 49.2058C39.0824 48.6164 39.9925 48.5991 39.065 48.4084C38.1289 48.209 37.9382 47.923 37.9382 47.8017C37.9382 47.689 37.7389 46.9262 37.3489 47.6716C36.9675 48.4084 35.7627 47.2036 35.7974 47.767C35.8407 48.3304 36.9675 48.4084 36.9675 48.4084Z" fill="url(#paint11_linear_2002_11681)"/>
<defs>
<linearGradient id="paint0_linear_2002_11681" x1="72.0444" y1="16.1562" x2="72.0444" y2="41.4912" gradientUnits="userSpaceOnUse">
<stop stop-color="#9D6DD1"/>
<stop offset="1" stop-color="#6D3F9E"/>
</linearGradient>
<linearGradient id="paint1_linear_2002_11681" x1="59.4162" y1="13.0273" x2="59.4162" y2="29.7124" gradientUnits="userSpaceOnUse">
<stop stop-color="#9D6DD1"/>
<stop offset="1" stop-color="#6D3F9E"/>
</linearGradient>
<linearGradient id="paint2_linear_2002_11681" x1="66.4705" y1="16.0869" x2="66.4705" y2="42.8297" gradientUnits="userSpaceOnUse">
<stop stop-color="#9D6DD1"/>
<stop offset="1" stop-color="#6D3F9E"/>
</linearGradient>
<linearGradient id="paint3_linear_2002_11681" x1="62.6713" y1="27.4761" x2="62.6713" y2="40.5554" gradientUnits="userSpaceOnUse">
<stop stop-color="#9D6DD1"/>
<stop offset="1" stop-color="#6D3F9E"/>
</linearGradient>
<linearGradient id="paint4_linear_2002_11681" x1="59.5205" y1="43.7017" x2="59.5205" y2="56.573" gradientUnits="userSpaceOnUse">
<stop stop-color="#9D6DD1"/>
<stop offset="1" stop-color="#6D3F9E"/>
</linearGradient>
<linearGradient id="paint5_linear_2002_11681" x1="59.5248" y1="43.7017" x2="59.5248" y2="47.6021" gradientUnits="userSpaceOnUse">
<stop stop-color="#9D6DD1"/>
<stop offset="1" stop-color="#6D3F9E"/>
</linearGradient>
<linearGradient id="paint6_linear_2002_11681" x1="59.9799" y1="44.4648" x2="59.9799" y2="46.311" gradientUnits="userSpaceOnUse">
<stop stop-color="#9D6DD1"/>
<stop offset="1" stop-color="#6D3F9E"/>
</linearGradient>
<linearGradient id="paint7_linear_2002_11681" x1="59.3041" y1="42.8706" x2="59.3041" y2="47.6022" gradientUnits="userSpaceOnUse">
<stop stop-color="#9D6DD1"/>
<stop offset="1" stop-color="#6D3F9E"/>
</linearGradient>
<linearGradient id="paint8_linear_2002_11681" x1="45.4414" y1="52.8213" x2="45.4414" y2="55.2151" gradientUnits="userSpaceOnUse">
<stop stop-color="#9D6DD1"/>
<stop offset="1" stop-color="#6D3F9E"/>
</linearGradient>
<linearGradient id="paint9_linear_2002_11681" x1="42.4469" y1="47.6968" x2="42.4469" y2="49.5178" gradientUnits="userSpaceOnUse">
<stop stop-color="#9D6DD1"/>
<stop offset="1" stop-color="#6D3F9E"/>
</linearGradient>
<linearGradient id="paint10_linear_2002_11681" x1="75.1148" y1="49.311" x2="75.1148" y2="51.3254" gradientUnits="userSpaceOnUse">
<stop stop-color="#9D6DD1"/>
<stop offset="1" stop-color="#6D3F9E"/>
</linearGradient>
<linearGradient id="paint11_linear_2002_11681" x1="37.6327" y1="47.3486" x2="37.6327" y2="49.4312" gradientUnits="userSpaceOnUse">
<stop stop-color="#9D6DD1"/>
<stop offset="1" stop-color="#6D3F9E"/>
</linearGradient>
</defs>
</svg>
